<svg xmlns="http://www.w3.org/2000/svg" version="1.1" xmlns:xlink="http://www.w3.org/1999/xlink" xmlns:svgjs="http://svgjs.dev/svgjs" width="1500" height="1500" viewBox="0 0 1500 1500"><rect width="1500" height="1500" fill="#fafafa"></rect><g transform="matrix(0.6666666666666666,0,0,0.6666666666666666,249.39393939393938,642.1996819413496)"><svg viewBox="0 0 396 86" data-background-color="#fafafa" preserveAspectRatio="xMidYMid meet" height="325" width="1500" xmlns="http://www.w3.org/2000/svg" xmlns:xlink="http://www.w3.org/1999/xlink"><g id="tight-bounds" transform="matrix(1,0,0,1,0.2400000000000091,-0.21156606287416935)"><svg viewBox="0 0 395.52 86.42313212574835" height="86.42313212574835" width="395.52"><g><svg viewBox="0 0 540.3691775100167 118.07341430175501" height="86.42313212574835" width="395.52"><g><rect width="3.5619473927838032" height="102.52394874247902" x="131.96276050261562" y="7.7747327796379935" fill="#f7f1f6" opacity="1" stroke-width="0" stroke="transparent" fill-opacity="1" class="rect-qz-0" data-fill-palette-color="primary" rx="1%" id="qz-0" data-palette-color="#f7f1f6"></rect></g><g transform="matrix(1,0,0,1,144.84917751001672,16.318395174844575)"><svg viewBox="0 0 395.52 85.43662395206586" height="85.43662395206586" width="395.52"><g id="textblocktransform"><svg viewBox="0 0 395.52 85.43662395206586" height="85.43662395206586" width="395.52" id="textblock"><g><svg viewBox="0 0 395.52 39.497744855967085" height="39.497744855967085" width="395.52"><g transform="matrix(1,0,0,1,0,0)"><svg width="395.52" viewBox="6.5 -35.7 364.47 36.400000000000006" height="39.497744855967085" data-palette-color="#f7f1f6"><path d="M9.9 0L6.5 0 6.5-35 9.9-35 9.9 0ZM19.85-1.1L19.85-1.1 20.15-4.1 20.45-4.1Q22.4-2.4 24.85-1.45 27.3-0.5 29.7-0.5L29.7-0.5Q33.1-0.5 35.2-2.38 37.3-4.25 37.3-7.4L37.3-7.4Q37.3-9.15 36.52-10.65 35.75-12.15 33.97-13.7 32.2-15.25 29.1-17.05L29.1-17.05Q26.95-18.3 25-19.68 23.05-21.05 21.8-22.88 20.55-24.7 20.55-27.25L20.55-27.25Q20.55-31.05 23.3-33.38 26.05-35.7 30.55-35.7L30.55-35.7Q32.55-35.7 34.85-35.27 37.15-34.85 38.4-34.2L38.4-34.2 38.15-31.4 37.85-31.4Q35-34.5 30.55-34.5L30.55-34.5Q27.35-34.5 25.4-32.88 23.45-31.25 23.45-28.5L23.45-28.5Q23.45-26.45 24.52-24.98 25.6-23.5 27.3-22.33 29-21.15 30.95-20.05L30.95-20.05Q33.2-18.75 35.32-17.3 37.45-15.85 38.82-13.83 40.2-11.8 40.2-8.75L40.2-8.75Q40.2-5.95 38.9-3.83 37.6-1.7 35.22-0.5 32.85 0.7 29.7 0.7L29.7 0.7Q27.7 0.7 25 0.2 22.3-0.3 19.85-1.1ZM79.4-35L83-35 83 0 79.59 0 79.59-32.1 79.3-32.1 67.2-8.9 65.65-8.9 51.9-29.35 51.59-29.35 52.7 0 49.3 0 50.55-35.7 51.55-35.7 67.3-12.3 67.59-12.3 79.4-35ZM94.44 0L90.79 0 104.24-35 107.34-35 120.79 0 117.14 0 110.94-16.4 99.59-16.4 94.44 0ZM104.89-32.4L104.59-32.4 99.94-17.6 110.49-17.6 104.89-32.4ZM144.29 0L128.89 0 128.89-35 144.14-35 144.14-32.55 135.39-33.7Q133.09-34 132.29-34L132.29-34 132.29-18.75Q132.94-18.75 135.39-18.9L135.39-18.9 143.59-19.4 143.59-17.1 135.39-17.6Q132.94-17.75 132.29-17.75L132.29-17.75 132.29-1Q133.19-1 135.44-1.3L135.44-1.3 144.29-2.45 144.29 0ZM154.79 0L154.79-35 158.19-35 158.19-1Q159.14-1 161.19-1.3L161.19-1.3 169.49-2.55 169.49 0 154.79 0ZM220.68-35L224.28-35 224.28 0 220.88 0 220.88-32.1 220.58-32.1 208.48-8.9 206.93-8.9 193.18-29.35 192.88-29.35 193.98 0 190.58 0 191.83-35.7 192.83-35.7 208.58-12.3 208.88-12.3 220.68-35ZM234.78-17.5L234.78-17.5Q234.78-21.35 236.16-24.68 237.53-28 240.01-30.48 242.48-32.95 245.81-34.33 249.13-35.7 252.98-35.7L252.98-35.7Q256.83-35.7 260.16-34.33 263.48-32.95 265.96-30.48 268.43-28 269.81-24.68 271.18-21.35 271.18-17.5L271.18-17.5Q271.18-13.65 269.81-10.33 268.43-7 265.96-4.53 263.48-2.05 260.16-0.68 256.83 0.7 252.98 0.7L252.98 0.7Q249.13 0.7 245.81-0.68 242.48-2.05 240.01-4.53 237.53-7 236.16-10.33 234.78-13.65 234.78-17.5ZM238.58-17.5L238.58-17.5Q238.58-12.4 240.38-8.58 242.18-4.75 245.43-2.63 248.68-0.5 252.98-0.5L252.98-0.5Q257.28-0.5 260.53-2.63 263.78-4.75 265.58-8.6 267.38-12.45 267.38-17.5L267.38-17.5Q267.38-22.55 265.58-26.38 263.78-30.2 260.53-32.35 257.28-34.5 252.98-34.5L252.98-34.5Q248.68-34.5 245.46-32.38 242.23-30.25 240.41-26.43 238.58-22.6 238.58-17.5ZM281.18-14L281.18-35 284.58-35 284.58-13.9Q284.58-7.85 287.55-4.48 290.53-1.1 295.93-1.1L295.93-1.1Q299.33-1.1 301.85-2.43 304.38-3.75 305.75-6.1 307.13-8.45 307.03-11.5L307.03-11.5 306.18-35 309.58-35 308.73-11.5Q308.53-5.5 305.15-2.4 301.78 0.7 295.53 0.7L295.53 0.7Q288.78 0.7 284.98-3.23 281.18-7.15 281.18-14L281.18-14ZM321.58 0L321.58-35 328.28-35Q333.58-35 336.5-32.77 339.43-30.55 339.43-26.55L339.43-26.55Q339.43-23.45 337.6-21.4 335.78-19.35 332.33-18.65L332.33-18.65 332.33-18.35Q335.63-17.7 337.73-15.25 339.83-12.8 340.88-9.2L340.88-9.2Q341.83-5.9 342.75-4.08 343.68-2.25 344.8-1.45 345.93-0.65 347.48-0.3L347.48-0.3 347.48 0 345.43 0Q343.23 0 341.8-0.8 340.38-1.6 339.38-3.5 338.38-5.4 337.48-8.75L337.48-8.75Q336.03-13.9 333.63-16.05 331.23-18.2 327.78-18.2L327.78-18.2 327.48-18.2 327.48-19.1 327.78-19.1Q335.83-19.1 335.83-26.5L335.83-26.5Q335.83-33.8 328.28-33.8L328.28-33.8 324.98-33.8 324.98 0 321.58 0ZM350.62-1.1L350.62-1.1 350.92-4.1 351.22-4.1Q353.17-2.4 355.62-1.45 358.07-0.5 360.47-0.5L360.47-0.5Q363.87-0.5 365.97-2.38 368.07-4.25 368.07-7.4L368.07-7.4Q368.07-9.15 367.3-10.65 366.52-12.15 364.75-13.7 362.97-15.25 359.87-17.05L359.87-17.05Q357.72-18.3 355.77-19.68 353.82-21.05 352.57-22.88 351.32-24.7 351.32-27.25L351.32-27.25Q351.32-31.05 354.07-33.38 356.82-35.7 361.32-35.7L361.32-35.7Q363.32-35.7 365.62-35.27 367.92-34.85 369.17-34.2L369.17-34.2 368.92-31.4 368.62-31.4Q365.77-34.5 361.32-34.5L361.32-34.5Q358.12-34.5 356.17-32.88 354.22-31.25 354.22-28.5L354.22-28.5Q354.22-26.45 355.3-24.98 356.37-23.5 358.07-22.33 359.77-21.15 361.72-20.05L361.72-20.05Q363.97-18.75 366.1-17.3 368.22-15.85 369.6-13.83 370.97-11.8 370.97-8.75L370.97-8.75Q370.97-5.95 369.67-3.83 368.37-1.7 366-0.5 363.62 0.7 360.47 0.7L360.47 0.7Q358.47 0.7 355.77 0.2 353.07-0.3 350.62-1.1Z" opacity="1" transform="matrix(1,0,0,1,0,0)" fill="#f7f1f6" class="wordmark-text-0" data-fill-palette-color="primary" id="text-0"></path></svg></g></svg></g><g transform="matrix(1,0,0,1,0,48.82221447058437)"><svg viewBox="0 0 208.38843565217397 36.61440948148149" height="36.61440948148149" width="208.38843565217397"><g transform="matrix(1,0,0,1,0,0)"><svg width="208.38843565217397" viewBox="-1.1 -39.01470588235294 311.13499999999004 54.67470581475294" height="36.61440948148149" data-palette-color="#ffeffd"><path d="M6.15-18.45L6.15-18.45Q6.2-18.9 6.45-19.53 6.7-20.15 7.13-20.73 7.55-21.3 8.15-21.78 8.75-22.25 9.5-22.4L9.5-22.4Q11.1-22.7 12.15-22.2 13.2-21.7 13.75-21.05L13.75-21.05Q13.95-20.75 13.9-20.7L13.9-20.7Q13.8-20.6 13.55-20.75L13.55-20.75Q13.25-20.95 12.58-21.1 11.9-21.25 11.13-21.18 10.35-21.1 9.63-20.7 8.9-20.3 8.45-19.4L8.45-19.4Q8.05-18.55 7.9-17.65 7.75-16.75 7.73-15.98 7.7-15.2 7.75-14.65 7.8-14.1 7.8-13.9L7.8-13.9Q7.9-13.35 7.98-12.53 8.05-11.7 8.05-10.85 8.05-10 8-9.18 7.95-8.35 7.8-7.75L7.8-7.75Q7.75-7.6 7.68-7.25 7.6-6.9 7.5-6.9L7.5-6.9Q7.25-6.9 7.25-7.25 7.25-7.6 7.25-7.75L7.25-7.75Q7.15-9 6.9-10.28 6.65-11.55 6.43-12.9 6.2-14.25 6.1-15.63 6-17 6.15-18.45ZM4.4-8.55L4.4-8.55Q4.45-9.55 4.23-11.38 4-13.2 4.05-15.6L4.05-15.6Q4.1-16.85 4.3-18.18 4.5-19.5 5.25-20.8L5.25-20.8Q6.05-22.2 7.28-22.88 8.5-23.55 9.4-23.5L9.4-23.5Q9.55-23.5 9.7-23.5 9.85-23.5 9.85-23.45L9.85-23.45Q9.85-23.35 9.8-23.38 9.75-23.4 9.45-23.3L9.45-23.3Q8.55-23.05 7.85-22.48 7.15-21.9 6.65-21.15 6.15-20.4 5.85-19.6 5.55-18.8 5.5-18.15L5.5-18.15Q5.2-15.4 5.55-13.35L5.55-13.35Q5.8-11.7 5.95-9.93 6.1-8.15 5.83-6.68 5.55-5.2 4.78-4.23 4-3.25 2.4-3.15L2.4-3.15Q2.25-3.15 2.02-3.18 1.8-3.2 1.8-3.3L1.8-3.3Q1.8-3.4 2.25-3.65L2.25-3.65Q3.55-4.25 3.95-5.4 4.35-6.55 4.4-8.55ZM-0.9-2.65L-0.9-2.65Q-0.2-1.55 1.33-1.03 2.85-0.5 4.95-1.1L4.95-1.1Q6-1.4 6.8-2.15 7.6-2.9 8.13-3.83 8.65-4.75 8.93-5.75 9.2-6.75 9.25-7.6L9.25-7.6Q9.3-9 9.18-10.35 9.05-11.7 8.88-12.98 8.7-14.25 8.58-15.45 8.45-16.65 8.55-17.8L8.55-17.8Q8.65-19.05 9.25-19.7 9.85-20.35 10.73-20.53 11.6-20.7 12.55-20.4 13.5-20.1 14.3-19.45L14.3-19.45Q14.5-19.35 14.45-19.2L14.45-19.2Q14.45-19.1 14.35-19.15 14.25-19.2 14.15-19.25L14.15-19.25Q12.3-19.85 11.28-19.6 10.25-19.35 10.15-17.8L10.15-17.8Q10.05-16 10.43-13.58 10.8-11.15 10.7-8.2L10.7-8.2Q10.75-7.2 10.48-5.9 10.2-4.6 9.58-3.38 8.95-2.15 7.93-1.2 6.9-0.25 5.5 0L5.5 0Q2.85 0.4 1.28-0.3-0.3-1-1-2.45L-1-2.45Q-1.1-2.75-1.1-2.8L-1.1-2.8-1.05-2.8Q-1.05-2.8-0.9-2.65ZM1.3-2.65L1.3-2.65Q2.25-2.4 3.6-2.45L3.6-2.45Q4.05-2.5 4.7-2.7 5.35-2.9 5.4-2.8L5.4-2.8Q5.55-2.6 5.1-2.3 4.65-2 3.95-1.78 3.25-1.55 2.5-1.48 1.75-1.4 1.25-1.6L1.25-1.6Q0.3-2-0.13-2.48-0.55-2.95-0.9-3.65L-0.9-3.65-1-3.85Q-1.1-4.05-1.05-4.1L-1.05-4.1Q-1-4.15-0.9-4.1L-0.9-4.1Q-0.85-4.05-0.85-4L-0.85-4Q-0.25-3.45 0.18-3.18 0.6-2.9 1.3-2.65ZM30.35-13.85L30.35-13.85Q30.5-15.2 30.4-16.7 30.3-18.2 29.77-19.48 29.25-20.75 28.17-21.6 27.1-22.45 25.35-22.45L25.35-22.45Q23-22.45 21.25-21.18 19.5-19.9 18.25-18.03 17-16.15 16.3-14.03 15.6-11.9 15.4-10.15L15.4-10.15Q15.1-7.75 15.32-6 15.55-4.25 16.15-3.13 16.75-2 17.67-1.45 18.6-0.9 19.7-0.9L19.7-0.9Q21.25-0.85 22.97-1.78 24.7-2.7 26.2-4.38 27.7-6.05 28.82-8.47 29.95-10.9 30.35-13.85ZM14.25-10.4L14.25-10.4Q14.45-12.4 15.25-14.8 16.05-17.2 17.47-19.25 18.9-21.3 20.9-22.68 22.9-24.05 25.55-24.05L25.55-24.05Q27.55-24.05 28.85-23.1 30.15-22.15 30.85-20.68 31.55-19.2 31.75-17.48 31.95-15.75 31.75-14.2L31.75-14.2Q31.3-10.6 30-7.95 28.7-5.3 26.95-3.53 25.2-1.75 23.25-0.88 21.3 0 19.5 0L19.5 0Q18.15 0 17.07-0.6 16-1.2 15.27-2.48 14.55-3.75 14.27-5.73 14-7.7 14.25-10.4ZM19.85-3.35L19.85-3.35Q19.6-3.35 19.35-3.53 19.1-3.7 18.95-3.95 18.8-4.2 18.75-4.45 18.7-4.7 18.95-4.8L18.95-4.8Q19.1-4.85 19.35-4.45 19.6-4.05 19.9-4.05L19.9-4.05Q20.4-4.05 21.07-4.7 21.75-5.35 22.37-6.23 23-7.1 23.47-7.95 23.95-8.8 24.15-9.2L24.15-9.2Q24.35-9.6 24.55-10.23 24.75-10.85 24.92-11.5 25.1-12.15 25.22-12.78 25.35-13.4 25.4-13.85L25.4-13.85Q25.65-16.1 25.3-17.32 24.95-18.55 24.15-18.55L24.15-18.55Q23.55-18.55 22.9-18.18 22.25-17.8 21.67-17.2 21.1-16.6 20.65-15.88 20.2-15.15 20-14.4L20-14.4Q19.75-13.55 19.65-13.55L19.65-13.55Q19.5-13.55 19.5-14.4L19.5-14.4Q19.65-15.35 20.15-16.28 20.65-17.2 21.4-17.93 22.15-18.65 23.05-19.13 23.95-19.6 24.9-19.6L24.9-19.6Q25.85-19.6 26.32-18.93 26.8-18.25 27-17.28 27.2-16.3 27.17-15.28 27.15-14.25 27.05-13.65L27.05-13.65Q26.85-12.3 26.42-11.03 26-9.75 25.4-8.45L25.4-8.45Q25.1-7.85 24.5-6.98 23.9-6.1 23.12-5.3 22.35-4.5 21.47-3.93 20.6-3.35 19.85-3.35ZM21.45-2.4L21.45-2.4Q21.5-2.1 20.97-1.9 20.45-1.7 19.9-1.7L19.9-1.7Q18.35-1.75 17.52-2.7 16.7-3.65 16.37-4.95 16.05-6.25 16.07-7.65 16.1-9.05 16.2-10L16.2-10Q16.4-11.65 17-13.7 17.6-15.75 18.7-17.55 19.8-19.35 21.4-20.58 23-21.8 25.2-21.8L25.2-21.8Q26.65-21.8 27.52-21.05 28.4-20.3 28.82-19.2 29.25-18.1 29.32-16.82 29.4-15.55 29.25-14.5L29.25-14.5Q29.15-13.35 28.9-12.4 28.65-11.45 28.2-10.3L28.2-10.3Q28.05-9.95 27.8-9.5 27.55-9.05 27.25-9.1L27.25-9.1Q27.1-9.15 27.17-9.5 27.25-9.85 27.37-10.38 27.5-10.9 27.65-11.48 27.8-12.05 27.85-12.55L27.85-12.55Q27.95-13.4 27.97-14.68 28-15.95 27.77-17.15 27.55-18.35 26.95-19.2 26.35-20.05 25.15-20.05L25.15-20.05Q23.4-20.05 21.92-18.93 20.45-17.8 19.35-16.18 18.25-14.55 17.57-12.78 16.9-11 16.75-9.65L16.75-9.65Q16.65-8.85 16.7-7.65 16.75-6.45 17.07-5.28 17.4-4.1 18.15-3.25 18.9-2.4 20.2-2.35L20.2-2.35Q20.6-2.3 20.97-2.43 21.35-2.55 21.45-2.4ZM50.34-19.65L50.34-19.65Q50.34-19.6 50.3-19.48 50.25-19.35 50.2-19.25L50.2-19.25Q49.89-18.55 49.34-18.05 48.8-17.55 48.2-17.2 47.59-16.85 47-16.7 46.39-16.55 45.95-16.6L45.95-16.6Q44.59-16.7 43.14-17.07 41.7-17.45 40.39-17.95L40.39-17.95Q40.34-17.95 40.12-18.1 39.89-18.25 39.89-18.35L39.89-18.35Q39.89-18.45 40.05-18.5 40.2-18.55 40.3-18.6L40.3-18.6Q40.59-18.7 41.09-18.75 41.59-18.8 42.12-18.8 42.64-18.8 43.14-18.78 43.64-18.75 44-18.7L44-18.7Q44.8-18.55 45.7-18.53 46.59-18.5 47.45-18.6 48.3-18.7 49-18.95 49.7-19.2 50.09-19.65L50.09-19.65Q50.34-19.9 50.34-19.65ZM50.75-21.15L50.75-21.15 50.59-20.95Q49.7-19.7 48.47-19.4 47.25-19.1 45.89-19.25 44.55-19.4 43.12-19.75 41.7-20.1 40.34-20.15L40.34-20.15Q38.59-20.25 36.8-19.38 34.99-18.5 33.7-16.25L33.7-16.25Q33.59-16 33.49-16.05L33.49-16.05Q33.45-16.05 33.47-16.23 33.49-16.4 33.55-16.5L33.55-16.5Q34.05-18 34.8-19 35.55-20 36.42-20.6 37.3-21.2 38.22-21.45 39.14-21.7 40.05-21.7L40.05-21.7Q42.55-27 45.92-31.35 49.3-35.7 53.25-38.7L53.25-38.7Q53.39-38.8 53.52-38.93 53.64-39.05 53.75-39L53.75-39Q53.84-39 53.7-38.78 53.55-38.55 53.5-38.5L53.5-38.5Q50.3-35.05 47.27-30.78 44.25-26.5 41.84-21.6L41.84-21.6Q42.05-21.5 42.27-21.5 42.5-21.5 42.7-21.45L42.7-21.45Q43.25-22.7 43.92-24.13 44.59-25.55 45.45-27L45.45-27Q46.3-28.55 47.32-29.98 48.34-31.4 49.37-32.6 50.39-33.8 51.25-34.75 52.09-35.7 52.59-36.25L52.59-36.25Q52.8-36.45 52.97-36.6 53.14-36.75 53.25-36.7L53.25-36.7Q53.34-36.65 53.25-36.45 53.14-36.25 53.05-36.1L53.05-36.1Q52.45-34.9 51.57-33.33 50.7-31.75 49.72-30.08 48.75-28.4 47.8-26.73 46.84-25.05 46.09-23.7L46.09-23.7Q45.75-23.05 45.37-22.43 45-21.8 44.7-21.1L44.7-21.1Q45.05-21.1 45.45-20.95L45.45-20.95Q46.55-23.2 47.77-25.38 49-27.55 50.45-29.75L50.45-29.75Q50.64-30 50.67-30.08 50.7-30.15 50.8-30.05L50.8-30.05Q50.84-30 50.75-29.6L50.75-29.6Q50.2-28.15 49.12-25.75 48.05-23.35 46.95-20.75L46.95-20.75Q47.95-20.65 48.84-20.75 49.75-20.85 50.59-21.25L50.59-21.25Q50.64-21.25 50.7-21.28 50.75-21.3 50.75-21.15ZM37.45-18.2L37.45-18.2Q37.45-18 37.12-17.73 36.8-17.45 36.7-17.4L36.7-17.4 35.3-16.45Q34.89-16.05 34.59-15.7 34.3-15.35 33.95-14.85L33.95-14.85Q33.84-14.75 33.82-14.65 33.8-14.55 33.7-14.55L33.7-14.55Q33.64-14.55 33.64-14.95L33.64-14.95Q33.64-15.15 33.7-15.35L33.7-15.35Q33.95-16.05 34.2-16.53 34.45-17 35.09-17.55L35.09-17.55Q35.34-17.75 35.74-17.95 36.14-18.15 36.52-18.28 36.89-18.4 37.17-18.4 37.45-18.4 37.45-18.2ZM39.14-14.95L39.14-14.95Q38.45-13.05 37.99-11.2 37.55-9.35 37.14-7.45L37.14-7.45Q36.59-4.65 36.37-1.73 36.14 1.2 36.27 4.03 36.39 6.85 36.87 9.5 37.34 12.15 38.2 14.4L38.2 14.4Q38.3 14.65 38.37 14.83 38.45 15 38.34 15L38.34 15Q38.2 15 38.05 14.8L38.05 14.8Q36.64 12.5 35.84 9.78 35.05 7.05 34.82 4 34.59 0.95 34.87-2.3 35.14-5.55 35.84-8.85L35.84-8.85Q36.49-12.15 37.49-15.3L37.49-15.3Q37.09-15.4 36.8-15.45 36.49-15.5 36.2-15.6L36.2-15.6Q36.09-15.65 35.89-15.73 35.7-15.8 35.7-15.9L35.7-15.9Q35.7-16 35.84-16.05 35.99-16.1 36.09-16.15L36.09-16.15Q37.89-16.8 39.74-16.65 41.59-16.5 43.5-16.15L43.5-16.15Q44.64-15.95 45.87-15.85 47.09-15.75 48.39-16.25L48.39-16.25Q48.59-16.35 48.59-16.25L48.59-16.25Q48.59-16.2 48.39-15.9L48.39-15.9Q47.84-15.05 46.77-14.78 45.7-14.5 44.55-14.45L44.55-14.45Q43.84-12.35 43.37-10.5 42.89-8.65 42.64-7.35L42.64-7.35 39.64 6.6Q39.55 7.05 39.49 7.38 39.45 7.7 39.34 7.6L39.34 7.6Q39.2 7.7 39.17 7.28 39.14 6.85 39.14 6.45L39.14 6.45Q39.14 1.6 40.07-3.78 40.99-9.15 42.84-14.5L42.84-14.5Q42.55-14.6 42.32-14.6 42.09-14.6 41.84-14.65L41.84-14.65Q41.09-12.7 40.47-10.75 39.84-8.8 39.24-6.9L39.24-6.9Q39.24-6.8 39.17-6.58 39.09-6.35 38.99-6.1 38.89-5.85 38.77-5.68 38.64-5.5 38.59-5.5L38.59-5.5Q38.55-5.5 38.57-5.7 38.59-5.9 38.62-6.18 38.64-6.45 38.67-6.73 38.7-7 38.7-7.1L38.7-7.1Q38.8-8.5 39.24-10.63 39.7-12.75 40.24-14.8L40.24-14.8Q39.64-14.8 39.14-14.95ZM39.74 14.8L39.74 14.8Q39.64 14.85 39.39 14.6L39.39 14.6Q39.3 14.5 39.24 14.4L39.24 14.4Q38.95 13.9 38.72 13.48 38.49 13.05 38.3 12.53 38.09 12 37.92 11.25 37.74 10.5 37.59 9.35L37.59 9.35Q37.45 8.5 37.39 7.18 37.34 5.85 37.34 4.6 37.34 3.35 37.45 2.45 37.55 1.55 37.7 1.55L37.7 1.55Q37.8 1.55 37.89 1.93 37.99 2.3 38.05 2.8 38.09 3.3 38.12 3.78 38.14 4.25 38.14 4.45L38.14 4.45 38.59 9.05Q38.74 10.4 39.05 11.65 39.34 12.9 39.7 14.15L39.7 14.15Q39.74 14.35 39.77 14.58 39.8 14.8 39.74 14.8ZM62.54-22.2L62.54-22.2Q62.59-22.15 62.59-21.98 62.59-21.8 62.54-21.7L62.54-21.7Q62.09-20.25 60.99-19.65 59.89-19.05 59.04-19.05L59.04-19.05Q57.99-19.05 56.89-19.23 55.79-19.4 54.79-20.15L54.79-20.15Q54.69-20.25 54.54-20.35 54.39-20.45 54.39-20.55L54.39-20.55Q54.39-20.7 54.54-20.78 54.69-20.85 54.79-20.9L54.79-20.9Q55.24-21 55.97-21.08 56.69-21.15 57.39-21.05L57.39-21.05Q57.89-20.95 58.59-20.95 59.29-20.95 60.02-21.05 60.74-21.15 61.34-21.38 61.94-21.6 62.24-22.05L62.24-22.05Q62.39-22.25 62.54-22.2ZM62.89-23.75L62.89-23.75 62.74-23.5Q61.89-22.4 60.94-22.08 59.99-21.75 58.94-21.8 57.89-21.85 56.82-22.08 55.74-22.3 54.69-22.35L54.69-22.35Q53.29-22.4 51.89-21.5 50.49-20.6 49.49-18.35L49.49-18.35Q49.34-18.05 49.29-18.23 49.24-18.4 49.29-18.55L49.29-18.55Q49.69-20.05 50.24-21.05 50.79-22.05 51.42-22.68 52.04-23.3 52.74-23.6 53.44-23.9 54.19-24L54.19-24Q55.04-26.85 55.52-29.58 55.99-32.3 55.59-34.75L55.59-34.75Q55.59-34.95 55.59-34.95L55.59-34.95Q55.69-35 55.79-34.9 55.89-34.8 55.89-34.75L55.89-34.75Q56.99-32.35 56.79-29.63 56.59-26.9 55.79-23.9L55.79-23.9Q56.04-23.85 56.19-23.85 56.34-23.85 56.54-23.85L56.54-23.85Q56.79-25.15 57.02-26.63 57.24-28.1 57.37-29.45 57.49-30.8 57.44-31.9 57.39-33 57.09-33.55L57.09-33.55Q56.94-34 57.09-34L57.09-34Q57.19-34 57.24-33.9 57.29-33.8 57.39-33.7L57.39-33.7Q58.09-33 58.49-31.8 58.89-30.6 59.04-29.25 59.19-27.9 59.14-26.58 59.09-25.25 58.84-24.25L58.84-24.25 58.64-23.45Q58.79-23.35 58.94-23.35 59.09-23.35 59.24-23.3L59.24-23.3Q59.54-24.8 59.77-26.3 59.99-27.8 59.94-29.45L59.94-29.45Q59.94-29.8 59.99-29.8L59.99-29.8Q60.09-29.8 60.14-29.65 60.19-29.5 60.24-29.4L60.24-29.4Q60.84-28.3 60.82-26.65 60.79-25 60.54-23.15L60.54-23.15Q61.64-23.15 62.64-23.75L62.64-23.75Q62.89-23.9 62.89-23.75ZM52.54-20.35L52.54-20.35Q52.54-20.1 52.27-19.85 51.99-19.6 51.84-19.5L51.84-19.5Q51.59-19.3 51.27-19.03 50.94-18.75 50.69-18.45L50.69-18.45Q50.44-18.05 50.22-17.75 49.99-17.45 49.84-16.9L49.84-16.9Q49.79-16.8 49.72-16.73 49.64-16.65 49.59-16.7L49.59-16.7Q49.44-16.85 49.59-17.35L49.59-17.35Q49.79-18.1 49.99-18.57 50.19-19.05 50.74-19.6L50.74-19.6Q50.94-19.8 51.24-20 51.54-20.2 51.84-20.35 52.14-20.5 52.34-20.5 52.54-20.5 52.54-20.35ZM56.44-0.25L56.44-0.25Q56.69-0.35 56.64-0.2 56.59-0.05 56.49 0L56.49 0Q55.59 0.3 54.59-0.1 53.59-0.5 52.74-1.35 51.89-2.2 51.29-3.33 50.69-4.45 50.54-5.55L50.54-5.55Q50.29-7.9 50.49-10.1 50.69-12.3 51.24-14.45L51.24-14.45 52.09-17.6Q51.79-17.6 51.49-17.75L51.49-17.75Q51.14-17.85 51.14-18L51.14-18Q51.14-18.1 51.49-18.3L51.49-18.3Q52.89-19 54.32-18.9 55.74-18.8 57.19-18.55L57.19-18.55Q58.09-18.4 59.02-18.32 59.94-18.25 61.04-18.7L61.04-18.7Q61.14-18.8 61.24-18.75L61.24-18.75Q61.34-18.65 61.19-18.4L61.19-18.4Q60.89-17.75 60.34-17.45 59.79-17.15 59.19-17L59.19-17Q58.79-15.7 58.49-14.68 58.19-13.65 57.99-12.95L57.99-12.95Q57.44-10.55 56.72-8.08 55.99-5.6 55.74-3.9L55.74-3.9Q55.64-3.35 55.54-3.3L55.54-3.3Q55.44-3.25 55.34-3.5 55.24-3.75 55.19-3.9L55.19-3.9Q54.99-5.35 55.12-6.93 55.24-8.5 55.59-10.15 55.94-11.8 56.39-13.48 56.84-15.15 57.34-16.85L57.34-16.85Q57.09-16.85 56.84-16.85 56.59-16.85 56.34-16.9L56.34-16.9Q55.94-15.85 55.52-14.83 55.09-13.8 54.69-12.9L54.69-12.9Q54.64-12.8 54.47-12.43 54.29-12.05 54.19-12.05L54.19-12.05Q53.99-12.1 54.04-12.53 54.09-12.95 54.09-13.1L54.09-13.1Q54.19-13.85 54.42-14.85 54.64-15.85 54.84-17L54.84-17Q54.59-17.05 54.29-17.07 53.99-17.1 53.69-17.2L53.69-17.2Q53.39-16.2 53.12-15.25 52.84-14.3 52.59-13.35L52.59-13.35Q52.19-11.6 51.99-9.63 51.79-7.65 51.99-5.55L51.99-5.55Q52.09-4.6 52.52-3.6 52.94-2.6 53.54-1.8 54.14-1 54.92-0.55 55.69-0.1 56.44-0.25ZM56.89-1.35L56.89-1.35Q57.14-1.55 57.19-1.38 57.24-1.2 56.99-1.05L56.99-1.05Q56.79-0.9 56.47-0.83 56.14-0.75 55.74-0.8 55.34-0.85 54.89-1.1 54.44-1.35 54.04-1.9L54.04-1.9Q53.69-2.35 53.47-3.2 53.24-4.05 53.14-4.88 53.04-5.7 53.09-6.3 53.14-6.9 53.34-6.9L53.34-6.9Q53.59-6.9 53.72-6.2 53.84-5.5 53.94-5.05L53.94-5.05Q54.14-4.25 54.49-3.4 54.84-2.55 55.24-2.05L55.24-2.05Q55.74-1.4 56.14-1.28 56.54-1.15 56.89-1.35ZM86.94-15.75L86.94-15.75Q86.09-14 84.94-12.23 83.79-10.45 82.54-9.05L82.54-9.05Q82.49-8.95 82.29-8.72 82.09-8.5 81.94-8.55L81.94-8.55Q81.84-8.65 81.89-8.9 81.94-9.15 81.99-9.3L81.99-9.3Q82.24-10.1 82.74-11.4 83.24-12.7 83.79-13.5L83.79-13.5Q83.94-13.75 84.42-14.9 84.89-16.05 85.34-17.48 85.79-18.9 86.02-20.25 86.24-21.6 85.94-22.25L85.94-22.25Q85.94-22.25 85.94-22.4L85.94-22.4 85.94-22.45Q86.19-22.45 86.29-22.25L86.29-22.25Q86.84-21.6 87.12-20.75 87.39-19.9 87.44-19 87.49-18.1 87.37-17.23 87.24-16.35 86.94-15.75ZM88.59-18.75L88.59-18.75Q89.14-17.75 88.92-16.28 88.69-14.8 88.12-13.28 87.54-11.75 86.81-10.38 86.09-9 85.64-8.15L85.64-8.15Q84.89-6.7 83.81-5.23 82.74-3.75 81.84-2.6L81.84-2.6Q81.59-2.25 81.39-2.25L81.39-2.25Q81.29-2.35 81.31-2.5 81.34-2.65 81.39-2.8L81.39-2.8Q82.19-5.4 83.39-7.63 84.59-9.85 85.89-12.25L85.89-12.25Q86.74-13.75 87.44-15.35 88.14-16.95 88.34-18.85L88.34-18.85Q88.34-19.05 88.44-19.05L88.44-19.05Q88.49-18.95 88.54-18.9 88.59-18.85 88.59-18.75ZM75.29-15.75L75.29-15.75Q74.44-14 73.29-12.23 72.14-10.45 70.89-9.05L70.89-9.05Q70.84-8.95 70.64-8.72 70.44-8.5 70.29-8.55L70.29-8.55Q70.19-8.65 70.24-8.9 70.29-9.15 70.34-9.3L70.34-9.3Q70.59-10.1 71.09-11.4 71.59-12.7 72.14-13.5L72.14-13.5Q72.29-13.75 72.77-14.9 73.24-16.05 73.69-17.48 74.14-18.9 74.39-20.25 74.64-21.6 74.34-22.25L74.34-22.25Q74.29-22.3 74.29-22.4L74.29-22.4Q74.29-22.45 74.34-22.45L74.34-22.45Q74.54-22.45 74.64-22.25L74.64-22.25Q75.19-21.6 75.47-20.75 75.74-19.9 75.79-19 75.84-18.1 75.72-17.23 75.59-16.35 75.29-15.75ZM76.84-20L76.84-20Q77.14-20 77.47-19.28 77.79-18.55 77.94-17.05L77.94-17.05Q78.19-15.2 77.87-13.23 77.54-11.25 77.04-9.5L77.04-9.5Q77.04-9.4 76.99-9.15 76.94-8.9 76.74-8.85L76.74-8.85Q76.64-8.85 76.54-9.1 76.44-9.35 76.44-9.45L76.44-9.45Q76.29-10 76.19-10.78 76.09-11.55 76.09-12.35L76.09-12.35Q75.79-11.65 75.49-11 75.19-10.35 74.89-9.8L74.89-9.8 74.89-9.3Q74.94-7.1 75.79-4.83 76.64-2.55 78.69-0.95L78.69-0.95Q78.49-1.45 78.42-1.68 78.34-1.9 77.89-2.55L77.89-2.55Q77.64-2.85 77.44-3.38 77.24-3.9 77.09-4.38 76.94-4.85 76.92-5.2 76.89-5.55 77.04-5.55L77.04-5.55Q77.29-5.65 77.52-5.3 77.74-4.95 77.89-4.65L77.89-4.65Q77.79-5.7 77.99-6.78 78.19-7.85 78.29-8.75L78.29-8.75Q78.44-10.05 78.54-11.08 78.64-12.1 78.69-13.55L78.69-13.55Q78.79-15.1 78.69-16.95 78.59-18.8 77.89-20.55L77.89-20.55Q77.79-20.7 77.94-20.7L77.94-20.7Q78.04-20.7 78.09-20.65 78.14-20.6 78.24-20.55L78.24-20.55Q78.89-20.05 79.31-19.18 79.74-18.3 79.97-17.23 80.19-16.15 80.27-14.98 80.34-13.8 80.34-12.75L80.34-12.75Q81.09-14.1 81.89-15.45 82.69-16.8 83.31-18.13 83.94-19.45 84.29-20.75 84.64-22.05 84.59-23.3L84.59-23.3Q84.59-23.45 84.64-23.45L84.64-23.45Q84.79-23.5 84.79-23.3L84.79-23.3Q85.54-21.65 85.27-19.95 84.99-18.25 84.22-16.55 83.44-14.85 82.39-13.18 81.34-11.5 80.54-9.85L80.54-9.85Q79.54-7.75 79.12-5.25 78.69-2.75 79.39 0L79.39 0 79.39 0.05Q79.34 0.1 79.34 0.1L79.34 0.1Q79.24 0.1 79.19 0.05L79.19 0.05Q79.14 0.05 79.09 0L79.09 0Q78.94-0.2 78.77-0.4 78.59-0.6 78.24-0.8L78.24-0.8Q75.94-2 74.92-3.73 73.89-5.45 73.59-7.35L73.59-7.35Q72.79-6.1 71.87-4.85 70.94-3.6 70.19-2.6L70.19-2.6Q69.94-2.25 69.74-2.25L69.74-2.25Q69.64-2.35 69.67-2.5 69.69-2.65 69.74-2.8L69.74-2.8Q70.54-5.4 71.79-7.73 73.04-10.05 74.39-12.4L74.39-12.4Q74.79-13.1 75.17-13.78 75.54-14.45 75.87-15.15 76.19-15.85 76.42-16.7 76.64-17.55 76.79-18.65L76.79-18.65Q76.84-19 76.77-19.5 76.69-20 76.84-20ZM66.29-17.2L66.29-17.2Q66.29-15.35 66.09-13.3 65.89-11.25 65.39-9.5L65.39-9.5Q65.39-9.4 65.34-9.15 65.29-8.9 65.09-8.85L65.09-8.85Q64.99-8.85 64.89-9.1 64.79-9.35 64.79-9.45L64.79-9.45Q64.69-9.85 64.61-10.43 64.54-11 64.49-11.6 64.44-12.2 64.42-12.8 64.39-13.4 64.44-13.85L64.44-13.85Q64.49-14.15 64.39-15.35 64.29-16.55 64.09-17.95 63.89-19.35 63.54-20.65 63.19-21.95 62.69-22.4L62.69-22.4Q62.59-22.5 62.56-22.63 62.54-22.75 62.59-22.75L62.59-22.75Q62.69-22.75 62.81-22.68 62.94-22.6 63.04-22.6L63.04-22.6Q63.74-22.25 64.34-21.6 64.94-20.95 65.36-20.2 65.79-19.45 66.04-18.65 66.29-17.85 66.29-17.2ZM73.14-23.2L73.14-23.2Q73.89-21.55 73.62-19.88 73.34-18.2 72.56-16.53 71.79-14.85 70.74-13.18 69.69-11.5 68.89-9.85L68.89-9.85Q67.89-7.75 67.47-5.25 67.04-2.75 67.74 0L67.74 0 67.74 0.05Q67.69 0.1 67.69 0.1L67.69 0.1Q67.59 0.1 67.54 0.05L67.54 0.05Q67.49 0.05 67.49 0L67.49 0Q67.34-0.2 67.14-0.4 66.94-0.6 66.59-0.8L66.59-0.8Q65.14-1.55 64.19-2.55 63.24-3.55 62.72-4.7 62.19-5.85 61.97-7.1 61.74-8.35 61.74-9.6L61.74-9.6Q61.69-11.4 61.81-13.23 61.94-15.05 61.97-16.75 61.99-18.45 61.79-20.03 61.59-21.6 60.94-22.9L60.94-22.9Q60.94-23 60.94-23L60.94-23Q61.04-23.1 61.14-23.03 61.24-22.95 61.29-22.95L61.29-22.95Q62.59-21.75 63.04-20.15 63.49-18.55 63.54-16.75 63.59-14.95 63.39-13.05 63.19-11.15 63.24-9.3L63.24-9.3Q63.29-8.2 63.49-7.05 63.69-5.9 64.14-4.83 64.59-3.75 65.31-2.75 66.04-1.75 67.04-0.95L67.04-0.95Q66.84-1.45 66.74-1.68 66.64-1.9 66.24-2.55L66.24-2.55Q65.99-2.85 65.79-3.38 65.59-3.9 65.44-4.38 65.29-4.85 65.27-5.2 65.24-5.55 65.39-5.55L65.39-5.55Q65.64-5.65 65.86-5.3 66.09-4.95 66.24-4.65L66.24-4.65Q66.19-5.7 66.36-6.78 66.54-7.85 66.64-8.75L66.64-8.75Q66.79-10.05 66.89-11.08 66.99-12.1 67.04-13.55L67.04-13.55Q67.14-15.1 67.06-16.95 66.99-18.8 66.24-20.55L66.24-20.55Q66.24-20.7 66.29-20.7L66.29-20.7Q66.39-20.7 66.44-20.65 66.49-20.6 66.59-20.55L66.59-20.55Q67.24-20.05 67.67-19.18 68.09-18.3 68.31-17.23 68.54-16.15 68.61-14.98 68.69-13.8 68.69-12.75L68.69-12.75Q69.44-14.1 70.24-15.45 71.04-16.8 71.67-18.13 72.29-19.45 72.64-20.75 72.99-22.05 72.94-23.3L72.94-23.3Q72.94-23.45 73.04-23.45L73.04-23.45Q73.09-23.5 73.12-23.4 73.14-23.3 73.14-23.2ZM69.09 0L69.09 0Q69.09 0.2 68.99 0.2L68.99 0.2Q68.94 0.2 68.81 0.13 68.69 0.05 68.59 0L68.59 0Q68.19-0.3 68.02-0.85 67.84-1.4 67.94-2.5L67.94-2.5Q67.94-2.95 68.04-3.5 68.14-4.05 68.29-4.53 68.44-5 68.59-5.28 68.74-5.55 68.89-5.5L68.89-5.5Q69.14-5.4 69.11-4.88 69.09-4.35 69.09-4.1L69.09-4.1Q69.04-2.8 69.04-1.75 69.04-0.7 69.09 0ZM80.74 0L80.74 0Q80.74 0.2 80.64 0.2L80.64 0.2Q80.59 0.2 80.47 0.13 80.34 0.05 80.24 0L80.24 0Q79.84-0.3 79.67-0.85 79.49-1.4 79.59-2.5L79.59-2.5Q79.59-2.95 79.69-3.5 79.79-4.05 79.94-4.53 80.09-5 80.24-5.28 80.39-5.55 80.54-5.5L80.54-5.5Q80.79-5.4 80.77-4.88 80.74-4.35 80.74-4.1L80.74-4.1Q80.69-2.8 80.69-1.75 80.69-0.7 80.74 0ZM108.79-17.6L108.79-17.6Q108.39-15.6 107.44-13.6 106.49-11.6 105.64-9.85L105.64-9.85Q105.59-9.75 105.41-9.5 105.24-9.25 105.14-9.25L105.14-9.25Q104.99-9.3 104.99-9.58 104.99-9.85 104.99-9.95L104.99-9.95Q105.04-10.4 105.16-11.03 105.29-11.65 105.39-12.33 105.49-13 105.61-13.63 105.74-14.25 105.89-14.75L105.89-14.75Q106.34-16.45 106.64-17.68 106.94-18.9 107.09-19.9 107.24-20.9 107.26-21.8 107.29-22.7 107.14-23.75L107.14-23.75Q107.09-24.15 107.19-24.25L107.19-24.25Q107.29-24.3 107.44-24.15 107.59-24 107.69-23.85L107.69-23.85Q108.54-22.5 108.84-20.88 109.14-19.25 108.79-17.6ZM109.79-21.25L109.99-20.95Q110.64-20 110.64-18.45 110.64-16.9 110.34-15.28 110.04-13.65 109.59-12.15 109.14-10.65 108.94-9.75L108.94-9.75Q108.54-8 107.84-6.25 107.14-4.5 106.64-3.15L106.64-3.15Q106.59-3 106.49-2.83 106.39-2.65 106.29-2.65L106.29-2.65Q106.19-2.65 106.19-2.85 106.19-3.05 106.19-3.2L106.19-3.2Q106.04-5.95 106.79-8.58 107.54-11.2 108.39-13.9L108.39-13.9Q108.89-15.55 109.34-17.28 109.79-19 109.74-21.05L109.74-21.05Q109.74-21.25 109.79-21.25L109.79-21.25ZM105.29-21.8L105.29-21.8Q102.24-20.55 100.11-18.23 97.99-15.9 96.84-13L96.84-13Q96.34-11.7 96.09-10.68 95.84-9.65 95.69-8.45L95.69-8.45Q95.64-8.2 95.84-7.95 96.04-7.7 96.24-7.95L96.24-7.95Q97.14-9.05 98.54-10.75 99.94-12.45 101.34-14.35 102.74-16.25 103.86-18.2 104.99-20.15 105.29-21.8ZM101.94-4.85L101.94-4.85Q101.19-3.8 100.49-2.9 99.79-2 98.94-1.33 98.09-0.65 97.04-0.25 95.99 0.15 94.64 0.2L94.64 0.2Q92.39 0.3 91.21-0.95 90.04-2.2 89.59-4 89.14-5.8 89.26-7.73 89.39-9.65 89.79-10.9L89.79-10.9Q90.34-12.65 91.11-14.23 91.89-15.8 92.76-17.07 93.64-18.35 94.56-19.28 95.49-20.2 96.39-20.7L96.39-20.7Q96.44-20.7 96.61-20.8 96.79-20.9 96.79-20.75L96.79-20.75Q96.84-20.75 96.74-20.6 96.64-20.45 96.54-20.35L96.54-20.35Q93.94-17.65 92.41-14.25 90.89-10.85 90.69-7.25L90.69-7.25Q90.64-6.35 90.76-5.3 90.89-4.25 91.26-3.33 91.64-2.4 92.34-1.78 93.04-1.15 94.24-1.15L94.24-1.15Q95.19-1.15 95.99-1.48 96.79-1.8 97.49-2.33 98.19-2.85 98.76-3.48 99.34-4.1 99.79-4.65L99.79-4.65Q100.79-5.9 101.64-7.25L101.64-7.25Q101.64-8.25 101.76-9.2 101.89-10.15 102.14-11.1L102.14-11.1Q102.29-11.8 102.41-12.23 102.54-12.65 102.66-13.03 102.79-13.4 102.91-13.83 103.04-14.25 103.29-14.95L103.29-14.95Q102.49-13.55 101.71-12.33 100.94-11.1 100.06-9.98 99.19-8.85 98.26-7.78 97.34-6.7 96.24-5.6L96.24-5.6Q95.39-4.75 94.84-5.05 94.29-5.35 94.19-6.45L94.19-6.45Q94.09-8.15 94.36-9.75 94.64-11.35 95.34-13.1L95.34-13.1Q95.99-14.7 96.96-16.2 97.94-17.7 99.21-18.93 100.49-20.15 102.04-21.03 103.59-21.9 105.34-22.2L105.34-22.2Q105.44-22.75 105.51-23.15 105.59-23.55 105.64-23.95L105.64-23.95Q105.74-24.5 105.74-24.5L105.74-24.5Q105.84-24.55 105.96-24.4 106.09-24.25 106.19-24L106.19-24Q106.79-22.35 106.59-20.7 106.39-19.05 105.86-17.35 105.34-15.65 104.64-13.88 103.94-12.1 103.49-10.3L103.49-10.3Q102.89-7.75 103.16-5.03 103.44-2.3 105.29-0.1L105.29-0.1Q105.44 0.1 105.44 0.1L105.44 0.1Q105.39 0.15 105.14 0L105.14 0Q103.69-0.9 102.96-2.18 102.24-3.45 101.94-4.85ZM103.69-22.55L103.69-22.55Q103.79-22.45 103.66-22.4 103.54-22.35 103.14-22.25L103.14-22.25Q102.49-22.05 101.56-21.5 100.64-20.95 99.61-20.1 98.59-19.25 97.59-18.13 96.59-17 95.84-15.7L95.84-15.7Q95.09-14.35 94.56-13.05 94.04-11.75 93.71-10.68 93.39-9.6 93.24-8.83 93.09-8.05 93.09-7.75L93.09-7.75Q93.09-7 93.09-6.18 93.09-5.35 93.29-4.7 93.49-4.05 93.99-3.7 94.49-3.35 95.49-3.5L95.49-3.5Q95.54-3.5 95.74-3.58 95.94-3.65 96.14-3.73 96.34-3.8 96.51-3.85 96.69-3.9 96.74-3.9L96.74-3.9Q96.79-3.8 96.66-3.65 96.54-3.5 96.34-3.33 96.14-3.15 95.96-3 95.79-2.85 95.74-2.8L95.74-2.8Q94.49-2.05 93.64-2.35 92.79-2.65 92.31-3.48 91.84-4.3 91.66-5.43 91.49-6.55 91.54-7.45L91.54-7.45Q91.64-9.2 92.09-10.93 92.54-12.65 93.24-14.4L93.24-14.4Q93.79-15.75 94.89-17.18 95.99-18.6 97.36-19.8 98.74-21 100.24-21.78 101.74-22.55 103.14-22.6L103.14-22.6Q103.64-22.6 103.69-22.55ZM106.64-0.1L106.64-0.1Q106.74 0.05 106.69 0.1L106.69 0.1Q106.54 0.1 106.29 0L106.29 0Q106.14-0.1 105.49-0.6 104.84-1.1 104.54-2.2L104.54-2.2Q104.44-2.6 104.36-3.23 104.29-3.85 104.29-4.4 104.29-4.95 104.36-5.35 104.44-5.75 104.59-5.75L104.59-5.75Q104.74-5.75 104.91-5.15 105.09-4.55 105.14-4.4L105.14-4.4Q105.29-3.7 105.41-3.18 105.54-2.65 105.69-2.2L105.69-2.2Q105.89-1.65 106.21-0.95 106.54-0.25 106.64-0.1ZM117.79-16.65L117.79-16.65Q117.39-14.95 116.66-13.08 115.94-11.2 115.04-9.6L115.04-9.6Q115.04-9.5 114.91-9.28 114.79-9.05 114.59-9.05L114.59-9.05Q114.49-9.05 114.46-9.35 114.44-9.65 114.49-9.75L114.49-9.75Q114.49-10.55 114.69-11.88 114.89-13.2 115.19-14.05L115.19-14.05Q115.29-14.35 115.51-15.5 115.74-16.65 115.91-18.07 116.09-19.5 116.11-20.83 116.14-22.15 115.79-22.8L115.79-22.8 115.79-23Q115.99-23.15 116.24-22.9L116.24-22.9Q116.89-22.35 117.26-21.55 117.64-20.75 117.81-19.88 117.99-19 117.96-18.15 117.94-17.3 117.79-16.65ZM119.74-16.85L119.74-16.85Q120.29-17.55 120.79-17.85 121.29-18.15 121.79-18.35L121.79-18.35Q121.84-18.35 122.04-18.4 122.24-18.45 122.34-18.3L122.34-18.3Q122.44-18.15 122.29-17.95 122.14-17.75 122.04-17.65L122.04-17.65Q121.69-17.3 121.26-16.88 120.84-16.45 120.49-16.05L120.49-16.05Q119.99-15.5 119.69-14.78 119.39-14.05 119.24-13.3L119.24-13.3Q120.09-14.2 120.86-15 121.64-15.8 122.54-16.5L122.54-16.5Q123.69-17.35 124.54-18.7 125.39-20.05 125.74-22.65L125.74-22.65Q125.84-22.9 125.99-22.95 126.14-23 126.14-22.6L126.14-22.6Q126.29-19.7 125.54-18 124.79-16.3 123.29-15.15L123.29-15.15Q122.49-14.55 121.69-13.85 120.89-13.15 120.16-12.3 119.44-11.45 118.84-10.3 118.24-9.15 117.79-7.65L117.79-7.65Q117.44-6.5 117.09-5.48 116.74-4.45 116.34-3.5L116.34-3.5Q116.24-3.15 116.04-3.15L116.04-3.15Q115.89-3.2 115.89-3.65L115.89-3.65Q115.64-6.05 116.21-8.43 116.79-10.8 117.59-13.35L117.59-13.35Q117.94-14.6 118.41-15.85 118.89-17.1 118.84-18.7L118.84-18.7Q118.84-19.25 119.29-19.85 119.74-20.45 120.39-20.98 121.04-21.5 121.74-21.88 122.44-22.25 122.94-22.4L122.94-22.4Q123.39-22.55 123.39-22.35 123.39-22.15 123.09-21.85L123.09-21.85Q122.04-20.9 120.96-19.6 119.89-18.3 119.74-16.85ZM115.39-0.05L115.39-0.05Q115.34 0 115.31-0.03 115.29-0.05 115.04-0.2L115.04-0.2Q113.54-1.3 112.69-2.6 111.84-3.9 111.46-5.28 111.09-6.65 111.14-8.03 111.19-9.4 111.49-10.7L111.49-10.7Q111.89-12.45 112.46-14.18 113.04-15.9 113.54-17.53 114.04-19.15 114.29-20.73 114.54-22.3 114.29-23.75L114.29-23.75Q114.29-23.85 114.44-23.9L114.44-23.9Q114.49-23.9 114.54-23.83 114.59-23.75 114.64-23.7L114.64-23.7Q115.59-22.1 115.59-20.43 115.59-18.75 115.14-17.03 114.69-15.3 114.01-13.53 113.34-11.75 112.94-9.95L112.94-9.95Q112.44-7.65 112.86-5.05 113.29-2.45 115.19-0.4L115.19-0.4Q115.29-0.25 115.39-0.2 115.49-0.15 115.39-0.05ZM116.89 0L116.89 0Q116.79 0 116.69-0.05L116.69-0.05 116.49-0.15Q115.79-0.6 115.24-1.13 114.69-1.65 114.29-2.65L114.29-2.65Q114.14-3 114.04-3.58 113.94-4.15 113.91-4.65 113.89-5.15 113.96-5.5 114.04-5.85 114.24-5.8L114.24-5.8Q114.39-5.8 114.56-5.4 114.74-5 114.84-4.6L114.84-4.6Q114.94-4.05 115.06-3.55 115.19-3.05 115.39-2.65L115.39-2.65Q115.94-1.4 116.84-0.25L116.84-0.25Q116.94 0 116.89 0ZM125.04-22.45L125.04-22.45Q125.04-21.4 124.44-20.6 123.84-19.8 122.99-19.25L122.99-19.25Q122.84-19.15 122.79-19.28 122.74-19.4 122.74-19.45L122.74-19.45Q122.74-19.75 122.99-20.18 123.24-20.6 123.56-21.08 123.89-21.55 124.19-22.05 124.49-22.55 124.59-22.95L124.59-22.95Q124.74-23.2 124.89-22.95 125.04-22.7 125.04-22.45ZM140.33-20.4L140.33-20.4Q140.73-19.9 140.96-19.15 141.18-18.4 141.13-17.53 141.08-16.65 140.73-15.7 140.38-14.75 139.63-13.85L139.63-13.85Q138.18-12.15 136.46-11.23 134.73-10.3 133.33-10.3L133.33-10.3Q132.48-10.3 133.33-10.6L133.33-10.6Q133.78-10.75 134.41-11.08 135.03-11.4 135.73-11.88 136.43-12.35 137.16-13 137.88-13.65 138.48-14.5L138.48-14.5Q139.48-15.9 139.66-17.23 139.83-18.55 139.13-19.25L139.13-19.25Q138.53-19.85 137.73-19.93 136.93-20 135.33-19.05L135.33-19.05Q133.88-18.2 132.73-16.95 131.58-15.7 130.58-14.3L130.58-14.3Q130.03-13.6 129.86-13.6 129.68-13.6 129.98-14.5L129.98-14.5Q130.58-16.25 131.66-17.75 132.73-19.25 134.23-20.3L134.23-20.3Q135.33-21.05 136.26-21.35 137.18-21.65 137.96-21.6 138.73-21.55 139.33-21.23 139.93-20.9 140.33-20.4ZM143.03-16.9L143.03-16.9Q142.83-15.7 142.41-14.88 141.98-14.05 141.46-13.48 140.93-12.9 140.41-12.55 139.88-12.2 139.48-11.9L139.48-11.9Q139.28-11.75 139.18-11.85 139.08-11.95 139.33-12.2L139.33-12.2Q140.23-12.95 141.16-14.23 142.08-15.5 142.13-17.05L142.13-17.05Q142.13-19.7 140.83-21.1L140.83-21.1Q139.53-22.5 137.58-22.33 135.63-22.15 133.53-20.8L133.53-20.8Q132.18-19.95 131.16-18.82 130.13-17.7 129.38-16.43 128.63-15.15 128.16-13.8 127.68-12.45 127.48-11.1L127.48-11.1Q127.28-9.8 127.11-8.3 126.93-6.8 127.11-5.35 127.28-3.9 128.03-2.58 128.78-1.25 130.38-0.3L130.38-0.3Q130.63-0.15 130.91-0.1 131.18-0.05 131.18 0L131.18 0Q131.18 0.1 130.93 0.13 130.68 0.15 130.38 0.05L130.38 0.05Q129.13-0.2 128.26-0.98 127.38-1.75 126.83-2.75 126.28-3.75 125.98-4.85 125.68-5.95 125.63-6.85L125.63-6.85Q125.33-10.8 126.73-14.65L126.73-14.65Q127.03-15.45 127.51-16.45 127.98-17.45 128.68-18.48 129.38-19.5 130.33-20.48 131.28-21.45 132.48-22.2L132.48-22.2Q133.63-22.9 134.88-23.25 136.13-23.6 137.38-23.58 138.63-23.55 139.73-23.13 140.83-22.7 141.68-21.85L141.68-21.85Q142.43-21.05 142.86-19.8 143.28-18.55 143.03-16.9ZM138.48-18.7L138.48-18.7Q139.08-18 138.63-16.53 138.18-15.05 136.53-13.55L136.53-13.55Q135.63-12.7 134.78-12.18 133.93-11.65 132.63-11.25L132.63-11.25Q132.08-9.35 131.93-7.5 131.78-5.65 132.03-4.5L132.03-4.5Q132.08-4.05 132.36-3.63 132.63-3.2 133.16-2.98 133.68-2.75 134.53-2.8 135.38-2.85 136.63-3.35L136.63-3.35Q136.98-3.5 137.06-3.43 137.13-3.35 136.73-3.1L136.73-3.1Q135.83-2.4 134.83-2.13 133.83-1.85 132.96-1.95 132.08-2.05 131.46-2.55 130.83-3.05 130.63-3.9L130.63-3.9Q130.23-5.65 130.28-7.55 130.33-9.45 130.86-11.3 131.38-13.15 132.36-14.78 133.33-16.4 134.78-17.55L134.78-17.55Q137.48-19.7 138.48-18.7ZM137.98-2.75L137.98-2.75Q137.63-2.25 137.11-1.78 136.58-1.3 135.91-0.93 135.23-0.55 134.51-0.3 133.78-0.05 133.03-0.05L133.03-0.05Q131.73-0.05 130.61-0.63 129.48-1.2 128.88-2.95L128.88-2.95Q128.78-3.15 128.78-3.33 128.78-3.5 128.88-3.5L128.88-3.5Q129.08-3.6 129.28-3.38 129.48-3.15 129.68-2.9L129.68-2.9Q130.23-2.25 131.11-1.75 131.98-1.25 132.78-1.25L132.78-1.25Q134.28-1.25 135.38-1.7 136.48-2.15 137.48-2.9L137.48-2.9Q137.73-3.05 138.06-3.2 138.38-3.35 137.98-2.75ZM137.28-17.35L137.28-17.35Q137.08-17.75 135.83-16.7L135.83-16.7Q134.68-15.8 134.01-14.63 133.33-13.45 132.83-12.05L132.83-12.05Q133.78-12.5 134.58-13.08 135.38-13.65 136.08-14.2L136.08-14.2Q136.83-14.85 137.18-15.9 137.53-16.95 137.28-17.35ZM174.68-26.05L174.68-26.05Q173.98-22.9 172.85-19.78 171.73-16.65 170.63-13.85L170.63-13.85Q170.58-13.6 170.38-13.2 170.18-12.8 169.93-12.9L169.93-12.9Q169.88-12.9 169.88-13.35 169.88-13.8 169.93-13.95L169.93-13.95Q170.03-14.65 170.2-15.63 170.38-16.6 170.6-17.6 170.83-18.6 171.08-19.58 171.33-20.55 171.53-21.25L171.53-21.25Q171.68-21.55 171.9-22.6 172.13-23.65 172.38-25.08 172.63-26.5 172.83-28.15 173.03-29.8 173.08-31.33 173.13-32.85 173.05-34.1 172.98-35.35 172.63-35.95L172.63-35.95Q172.38-36.45 172.53-36.5L172.53-36.5Q172.73-36.5 172.98-36.25L172.98-36.25Q173.73-35.5 174.15-34.23 174.58-32.95 174.78-31.48 174.98-30 174.93-28.55 174.88-27.1 174.68-26.05ZM175.98-31.6L175.98-31.6Q176.48-30.6 176.58-29.15 176.68-27.7 176.53-26.03 176.38-24.35 176.05-22.58 175.73-20.8 175.33-19.18 174.93-17.55 174.55-16.15 174.18-14.75 173.93-13.85L173.93-13.85Q173.23-11.25 172.65-8.68 172.08-6.1 172.08-4.3L172.08-4.3Q172.08-3.65 172.03-3.65L172.03-3.65Q171.93-3.55 171.8-3.8 171.68-4.05 171.58-4.3L171.58-4.3Q171.08-6.1 171.15-8.03 171.23-9.95 171.63-11.98 172.03-14 172.65-16.07 173.28-18.15 173.88-20.2L173.88-20.2Q174.58-22.8 175.28-25.63 175.98-28.45 175.73-31.6L175.73-31.6Q175.73-31.85 175.7-31.88 175.68-31.9 175.73-31.9L175.73-31.9Q175.83-31.9 175.98-31.6ZM168.78-21.35L168.78-21.35Q165.78-20.05 163.65-17.73 161.53-15.4 160.43-12.55L160.43-12.55Q159.98-11.35 159.7-10.28 159.43-9.2 159.33-8L159.33-8Q159.28-7.4 159.63-7.55 159.98-7.7 160.23-8L160.23-8Q160.83-8.75 161.33-9.47 161.83-10.2 162.35-10.98 162.88-11.75 163.45-12.63 164.03-13.5 164.73-14.5L164.73-14.5Q165.48-15.55 166.15-16.57 166.83-17.6 167.35-18.5 167.88-19.4 168.25-20.15 168.63-20.9 168.78-21.35ZM167.68-17.4L167.68-17.4Q165.88-13.9 163.98-10.83 162.08-7.75 159.63-5.2L159.63-5.2Q158.08-3.55 157.78-5.7L157.78-5.7Q157.68-7.4 158.03-9.25 158.38-11.1 159.08-12.75L159.08-12.75Q159.73-14.35 160.68-15.85 161.63-17.35 162.88-18.6 164.13-19.85 165.65-20.7 167.18-21.55 168.93-21.85L168.93-21.85Q169.53-23.95 170.08-25.98 170.63-28 170.98-29.95 171.33-31.9 171.35-33.73 171.38-35.55 171.03-37.2L171.03-37.2Q170.93-37.5 170.98-37.5L170.98-37.5Q171.08-37.55 171.15-37.4 171.23-37.25 171.23-37.2L171.23-37.2Q172.43-34.8 172.4-32.05 172.38-29.3 171.73-26.35 171.08-23.4 170.1-20.35 169.13-17.3 168.43-14.25L168.43-14.25Q167.98-12.3 167.9-10.08 167.83-7.85 168.33-5.7L168.33-5.7Q168.83-3.45 170.18-1.88 171.53-0.3 173.28-0.15L173.28-0.15Q173.68-0.1 173.68 0L173.68 0Q173.68 0.1 173.55 0.13 173.43 0.15 173.33 0.15L173.33 0.15Q172.28 0.15 171.25-0.25 170.23-0.65 169.33-1.4 168.43-2.15 167.75-3.18 167.08-4.2 166.78-5.5L166.78-5.5Q166.68-5.9 166.68-6.15L166.68-6.15Q165.28-3.5 163.3-1.88 161.33-0.25 158.33 0L158.33 0Q156.08 0.15 154.9-1.05 153.73-2.25 153.28-3.95 152.83-5.65 152.98-7.53 153.13-9.4 153.53-10.6L153.53-10.6Q154.68-14.05 156.43-16.68 158.18-19.3 159.93-20.35L159.93-20.35Q160.03-20.45 160.23-20.53 160.43-20.6 160.48-20.55L160.48-20.55Q160.58-20.5 160.43-20.35 160.28-20.2 160.23-20.15L160.23-20.15Q157.53-17.45 156.05-13.98 154.58-10.5 154.48-6.9L154.48-6.9Q154.43-6 154.53-4.95 154.63-3.9 155-2.98 155.38-2.05 156.08-1.43 156.78-0.8 157.98-0.8L157.98-0.8Q159.68-0.75 161.2-1.83 162.73-2.9 163.85-4.48 164.98-6.05 165.68-7.85 166.38-9.65 166.48-11.15L166.48-11.15Q166.13-10.75 165.88-10.33 165.63-9.9 165.23-9.4L165.23-9.4Q165.18-9.3 164.93-9.08 164.68-8.85 164.53-8.9L164.53-8.9Q164.43-8.95 164.63-9.47 164.83-10 165.13-10.63 165.43-11.25 165.73-11.83 166.03-12.4 166.13-12.6L166.13-12.6Q166.68-13.75 166.98-14.9 167.28-16.05 167.68-17.4ZM174.63-1.15L174.63-1.15Q174.63-1.05 174.38-0.95L174.38-0.95Q174.23-0.9 174.13-0.9L174.13-0.9Q173.18-0.8 172.35-1 171.53-1.2 170.68-2.05L170.68-2.05Q170.23-2.5 169.9-3.4 169.58-4.3 169.4-5.15 169.23-6 169.25-6.65 169.28-7.3 169.48-7.25L169.48-7.25Q169.53-7.3 169.65-7.05 169.78-6.8 169.88-6.48 169.98-6.15 170.08-5.83 170.18-5.5 170.23-5.35L170.23-5.35Q170.48-4.55 170.83-3.9 171.18-3.25 171.68-2.75L171.68-2.75Q172.88-1.35 174.28-1.3L174.28-1.3Q174.38-1.3 174.5-1.28 174.63-1.25 174.63-1.15ZM167.38-22.25L167.38-22.25Q167.38-22.2 167.3-22.15 167.23-22.1 166.93-22L166.93-22Q166.28-21.75 165.33-21.18 164.38-20.6 163.33-19.75 162.28-18.9 161.25-17.78 160.23-16.65 159.48-15.35L159.48-15.35Q158.73-14 158.2-12.73 157.68-11.45 157.38-10.38 157.08-9.3 156.95-8.55 156.83-7.8 156.78-7.55L156.78-7.55Q156.73-6.7 156.73-5.88 156.73-5.05 156.95-4.38 157.18-3.7 157.68-3.35 158.18-3 159.18-3.15L159.18-3.15Q159.28-3.15 159.8-3.38 160.33-3.6 160.43-3.55L160.43-3.55Q160.48-3.5 160.38-3.35 160.28-3.2 160.08-3.03 159.88-2.85 159.7-2.73 159.53-2.6 159.48-2.55L159.48-2.55Q159.03-2.3 158.48-2.18 157.93-2.05 157.4-2.15 156.88-2.25 156.43-2.58 155.98-2.9 155.78-3.5L155.78-3.5Q155.23-5.35 155.28-7.1L155.28-7.1Q155.38-8.85 155.73-10.58 156.08-12.3 156.93-14.05L156.93-14.05Q157.43-15.4 158.5-16.85 159.58-18.3 160.98-19.5 162.38-20.7 163.9-21.5 165.43-22.3 166.78-22.35L166.78-22.35Q166.98-22.35 167.18-22.35 167.38-22.35 167.38-22.25ZM191.23-20.4L191.23-20.4Q191.63-19.9 191.85-19.15 192.08-18.4 192.03-17.53 191.98-16.65 191.63-15.7 191.28-14.75 190.53-13.85L190.53-13.85Q189.08-12.15 187.35-11.23 185.63-10.3 184.23-10.3L184.23-10.3Q183.38-10.3 184.23-10.6L184.23-10.6Q184.68-10.75 185.3-11.08 185.93-11.4 186.63-11.88 187.33-12.35 188.05-13 188.78-13.65 189.38-14.5L189.38-14.5Q190.38-15.9 190.55-17.23 190.73-18.55 190.03-19.25L190.03-19.25Q189.43-19.85 188.63-19.93 187.83-20 186.23-19.05L186.23-19.05Q184.78-18.2 183.63-16.95 182.48-15.7 181.48-14.3L181.48-14.3Q180.93-13.6 180.75-13.6 180.58-13.6 180.88-14.5L180.88-14.5Q181.48-16.25 182.55-17.75 183.63-19.25 185.13-20.3L185.13-20.3Q186.23-21.05 187.15-21.35 188.08-21.65 188.85-21.6 189.63-21.55 190.23-21.23 190.83-20.9 191.23-20.4ZM193.93-16.9L193.93-16.9Q193.73-15.7 193.3-14.88 192.88-14.05 192.35-13.48 191.83-12.9 191.3-12.55 190.78-12.2 190.38-11.9L190.38-11.9Q190.18-11.75 190.08-11.85 189.98-11.95 190.23-12.2L190.23-12.2Q191.13-12.95 192.05-14.23 192.98-15.5 193.03-17.05L193.03-17.05Q193.03-19.7 191.73-21.1L191.73-21.1Q190.43-22.5 188.48-22.33 186.53-22.15 184.43-20.8L184.43-20.8Q183.08-19.95 182.05-18.82 181.03-17.7 180.28-16.43 179.53-15.15 179.05-13.8 178.58-12.45 178.38-11.1L178.38-11.1Q178.18-9.8 178-8.3 177.83-6.8 178-5.35 178.18-3.9 178.93-2.58 179.68-1.25 181.28-0.3L181.28-0.3Q181.53-0.15 181.8-0.1 182.08-0.05 182.08 0L182.08 0Q182.08 0.1 181.83 0.13 181.58 0.15 181.28 0.05L181.28 0.05Q180.03-0.2 179.15-0.98 178.28-1.75 177.73-2.75 177.18-3.75 176.88-4.85 176.58-5.95 176.53-6.85L176.53-6.85Q176.23-10.8 177.63-14.65L177.63-14.65Q177.93-15.45 178.4-16.45 178.88-17.45 179.58-18.48 180.28-19.5 181.23-20.48 182.18-21.45 183.38-22.2L183.38-22.2Q184.53-22.9 185.78-23.25 187.03-23.6 188.28-23.58 189.53-23.55 190.63-23.13 191.73-22.7 192.58-21.85L192.58-21.85Q193.33-21.05 193.75-19.8 194.18-18.55 193.93-16.9ZM189.38-18.7L189.38-18.7Q189.98-18 189.53-16.53 189.08-15.05 187.43-13.55L187.43-13.55Q186.53-12.7 185.68-12.18 184.83-11.65 183.53-11.25L183.53-11.25Q182.98-9.35 182.83-7.5 182.68-5.65 182.93-4.5L182.93-4.5Q182.98-4.05 183.25-3.63 183.53-3.2 184.05-2.98 184.58-2.75 185.43-2.8 186.28-2.85 187.53-3.35L187.53-3.35Q187.88-3.5 187.95-3.43 188.03-3.35 187.63-3.1L187.63-3.1Q186.73-2.4 185.73-2.13 184.73-1.85 183.85-1.95 182.98-2.05 182.35-2.55 181.73-3.05 181.53-3.9L181.53-3.9Q181.13-5.65 181.18-7.55 181.23-9.45 181.75-11.3 182.28-13.15 183.25-14.78 184.23-16.4 185.68-17.55L185.68-17.55Q188.38-19.7 189.38-18.7ZM188.88-2.75L188.88-2.75Q188.53-2.25 188-1.78 187.48-1.3 186.8-0.93 186.13-0.55 185.4-0.3 184.68-0.05 183.93-0.05L183.93-0.05Q182.63-0.05 181.5-0.63 180.38-1.2 179.78-2.95L179.78-2.95Q179.68-3.15 179.68-3.33 179.68-3.5 179.78-3.5L179.78-3.5Q179.98-3.6 180.18-3.38 180.38-3.15 180.58-2.9L180.58-2.9Q181.13-2.25 182-1.75 182.88-1.25 183.68-1.25L183.68-1.25Q185.18-1.25 186.28-1.7 187.38-2.15 188.38-2.9L188.38-2.9Q188.63-3.05 188.95-3.2 189.28-3.35 188.88-2.75ZM188.18-17.35L188.18-17.35Q187.98-17.75 186.73-16.7L186.73-16.7Q185.58-15.8 184.9-14.63 184.23-13.45 183.73-12.05L183.73-12.05Q184.68-12.5 185.48-13.08 186.28-13.65 186.98-14.2L186.98-14.2Q187.73-14.85 188.08-15.9 188.43-16.95 188.18-17.35ZM208.27-15.75L208.27-15.75Q207.42-14 206.27-12.23 205.12-10.45 203.87-9.05L203.87-9.05Q203.82-8.95 203.62-8.72 203.42-8.5 203.27-8.55L203.27-8.55Q203.17-8.65 203.22-8.9 203.27-9.15 203.32-9.3L203.32-9.3Q203.57-10.1 204.07-11.4 204.57-12.7 205.12-13.5L205.12-13.5Q205.27-13.75 205.75-14.9 206.22-16.05 206.67-17.48 207.12-18.9 207.37-20.25 207.62-21.6 207.32-22.25L207.32-22.25Q207.32-22.25 207.32-22.4L207.32-22.4 207.32-22.45Q207.52-22.45 207.62-22.25L207.62-22.25Q208.17-21.6 208.45-20.75 208.72-19.9 208.77-19 208.82-18.1 208.7-17.23 208.57-16.35 208.27-15.75ZM209.92-18.85L209.92-18.85Q210.47-17.8 210.25-16.32 210.02-14.85 209.45-13.3 208.87-11.75 208.15-10.38 207.42-9 206.97-8.15L206.97-8.15Q206.22-6.7 205.15-5.23 204.07-3.75 203.17-2.6L203.17-2.6Q202.92-2.25 202.72-2.25L202.72-2.25Q202.62-2.35 202.65-2.5 202.67-2.65 202.72-2.8L202.72-2.8Q203.52-5.4 204.72-7.63 205.92-9.85 207.22-12.25L207.22-12.25Q208.07-13.75 208.75-15.33 209.42-16.9 209.67-18.8L209.67-18.8Q209.67-19.05 209.72-19.05L209.72-19.05Q209.87-19.05 209.92-18.85ZM199.27-17.2L199.27-17.2Q199.27-15.35 199-13.2 198.72-11.05 198.42-9.5L198.42-9.5Q198.42-9.4 198.35-9.15 198.27-8.9 198.07-8.85L198.07-8.85Q197.97-8.85 197.9-9.1 197.82-9.35 197.77-9.45L197.77-9.45Q197.67-9.85 197.6-10.43 197.52-11 197.47-11.6 197.42-12.2 197.4-12.8 197.37-13.4 197.42-13.85L197.42-13.85Q197.47-14.15 197.37-15.35 197.27-16.55 197.07-17.95 196.87-19.35 196.52-20.63 196.17-21.9 195.67-22.4L195.67-22.4Q195.57-22.5 195.55-22.63 195.52-22.75 195.57-22.75L195.57-22.75Q195.67-22.75 195.8-22.7 195.92-22.65 196.02-22.6L196.02-22.6Q196.72-22.3 197.32-21.65 197.92-21 198.35-20.23 198.77-19.45 199.02-18.65 199.27-17.85 199.27-17.2ZM202.07 0L202.07 0Q202.07 0.2 201.97 0.2L201.97 0.2Q201.92 0.2 201.8 0.13 201.67 0.05 201.57 0L201.57 0Q201.17-0.3 201-0.85 200.82-1.4 200.92-2.5L200.92-2.5Q200.92-2.95 201.02-3.5 201.12-4.05 201.27-4.53 201.42-5 201.57-5.28 201.72-5.55 201.87-5.5L201.87-5.5Q202.12-5.4 202.1-4.88 202.07-4.35 202.07-4.1L202.07-4.1Q202.02-2.8 202.02-1.75 202.02-0.7 202.07 0ZM199.22-2.55L199.22-2.55Q198.97-2.85 198.77-3.35 198.57-3.85 198.42-4.33 198.27-4.8 198.25-5.15 198.22-5.5 198.37-5.55L198.37-5.55Q198.62-5.6 198.85-5.28 199.07-4.95 199.22-4.65L199.22-4.65Q199.17-5.7 199.35-6.78 199.52-7.85 199.62-8.75L199.62-8.75Q199.77-10.05 199.87-11.08 199.97-12.1 200.02-13.55L200.02-13.55Q200.12-15.1 200.02-16.95 199.92-18.8 199.22-20.55L199.22-20.55Q199.17-20.7 199.27-20.7L199.27-20.7Q199.37-20.7 199.42-20.65 199.47-20.6 199.57-20.55L199.57-20.55Q200.22-20.05 200.65-19.18 201.07-18.3 201.3-17.23 201.52-16.15 201.6-14.98 201.67-13.8 201.67-12.75L201.67-12.75Q202.42-14.1 203.22-15.43 204.02-16.75 204.62-18.07 205.22-19.4 205.57-20.68 205.92-21.95 205.87-23.2L205.87-23.2Q205.87-23.4 205.92-23.45L205.92-23.45Q205.97-23.45 206.12-23.2L206.12-23.2Q206.82-21.55 206.57-19.88 206.32-18.2 205.55-16.53 204.77-14.85 203.72-13.18 202.67-11.5 201.87-9.85L201.87-9.85Q200.87-7.75 200.45-5.25 200.02-2.75 200.72 0L200.72 0 200.72 0.05Q200.67 0.1 200.67 0.1L200.67 0.1Q200.57 0.1 200.52 0.05L200.52 0.05Q200.47 0.05 200.47 0L200.47 0Q200.32-0.2 200.12-0.4 199.92-0.6 199.57-0.8L199.57-0.8Q198.12-1.55 197.17-2.55 196.22-3.55 195.7-4.7 195.17-5.85 194.95-7.1 194.72-8.35 194.72-9.6L194.72-9.6Q194.67-11.4 194.8-13.23 194.92-15.05 194.95-16.75 194.97-18.45 194.77-20.03 194.57-21.6 193.92-22.9L193.92-22.9Q193.92-23 193.92-23L193.92-23Q194.02-23.1 194.12-23.05 194.22-23 194.27-22.95L194.27-22.95Q195.57-21.75 196.02-20.15 196.47-18.55 196.52-16.75 196.57-14.95 196.37-13.05 196.17-11.15 196.22-9.3L196.22-9.3Q196.27-8.2 196.47-7.05 196.67-5.9 197.12-4.83 197.57-3.75 198.3-2.75 199.02-1.75 200.02-0.95L200.02-0.95Q199.82-1.45 199.72-1.68 199.62-1.9 199.22-2.55ZM225.22-20.4L225.22-20.4Q225.62-19.9 225.85-19.15 226.07-18.4 226.02-17.53 225.97-16.65 225.62-15.7 225.27-14.75 224.52-13.85L224.52-13.85Q223.07-12.15 221.35-11.23 219.62-10.3 218.22-10.3L218.22-10.3Q217.37-10.3 218.22-10.6L218.22-10.6Q218.67-10.75 219.3-11.08 219.92-11.4 220.62-11.88 221.32-12.35 222.05-13 222.77-13.65 223.37-14.5L223.37-14.5Q224.37-15.9 224.55-17.23 224.72-18.55 224.02-19.25L224.02-19.25Q223.42-19.85 222.62-19.93 221.82-20 220.22-19.05L220.22-19.05Q218.77-18.2 217.62-16.95 216.47-15.7 215.47-14.3L215.47-14.3Q214.92-13.6 214.75-13.6 214.57-13.6 214.87-14.5L214.87-14.5Q215.47-16.25 216.55-17.75 217.62-19.25 219.12-20.3L219.12-20.3Q220.22-21.05 221.15-21.35 222.07-21.65 222.85-21.6 223.62-21.55 224.22-21.23 224.82-20.9 225.22-20.4ZM227.92-16.9L227.92-16.9Q227.72-15.7 227.3-14.88 226.87-14.05 226.35-13.48 225.82-12.9 225.3-12.55 224.77-12.2 224.37-11.9L224.37-11.9Q224.17-11.75 224.07-11.85 223.97-11.95 224.22-12.2L224.22-12.2Q225.12-12.95 226.05-14.23 226.97-15.5 227.02-17.05L227.02-17.05Q227.02-19.7 225.72-21.1L225.72-21.1Q224.42-22.5 222.47-22.33 220.52-22.15 218.42-20.8L218.42-20.8Q217.07-19.95 216.05-18.82 215.02-17.7 214.27-16.43 213.52-15.15 213.05-13.8 212.57-12.45 212.37-11.1L212.37-11.1Q212.17-9.8 212-8.3 211.82-6.8 212-5.35 212.17-3.9 212.92-2.58 213.67-1.25 215.27-0.3L215.27-0.3Q215.52-0.15 215.8-0.1 216.07-0.05 216.07 0L216.07 0Q216.07 0.1 215.82 0.13 215.57 0.15 215.27 0.05L215.27 0.05Q214.02-0.2 213.15-0.98 212.27-1.75 211.72-2.75 211.17-3.75 210.87-4.85 210.57-5.95 210.52-6.85L210.52-6.85Q210.22-10.8 211.62-14.65L211.62-14.65Q211.92-15.45 212.4-16.45 212.87-17.45 213.57-18.48 214.27-19.5 215.22-20.48 216.17-21.45 217.37-22.2L217.37-22.2Q218.52-22.9 219.77-23.25 221.02-23.6 222.27-23.58 223.52-23.55 224.62-23.13 225.72-22.7 226.57-21.85L226.57-21.85Q227.32-21.05 227.75-19.8 228.17-18.55 227.92-16.9ZM223.37-18.7L223.37-18.7Q223.97-18 223.52-16.53 223.07-15.05 221.42-13.55L221.42-13.55Q220.52-12.7 219.67-12.18 218.82-11.65 217.52-11.25L217.52-11.25Q216.97-9.35 216.82-7.5 216.67-5.65 216.92-4.5L216.92-4.5Q216.97-4.05 217.25-3.63 217.52-3.2 218.05-2.98 218.57-2.75 219.42-2.8 220.27-2.85 221.52-3.35L221.52-3.35Q221.87-3.5 221.95-3.43 222.02-3.35 221.62-3.1L221.62-3.1Q220.72-2.4 219.72-2.13 218.72-1.85 217.85-1.95 216.97-2.05 216.35-2.55 215.72-3.05 215.52-3.9L215.52-3.9Q215.12-5.65 215.17-7.55 215.22-9.45 215.75-11.3 216.27-13.15 217.25-14.78 218.22-16.4 219.67-17.55L219.67-17.55Q222.37-19.7 223.37-18.7ZM222.87-2.75L222.87-2.75Q222.52-2.25 222-1.78 221.47-1.3 220.8-0.93 220.12-0.55 219.4-0.3 218.67-0.05 217.92-0.05L217.92-0.05Q216.62-0.05 215.5-0.63 214.37-1.2 213.77-2.95L213.77-2.95Q213.67-3.15 213.67-3.33 213.67-3.5 213.77-3.5L213.77-3.5Q213.97-3.6 214.17-3.38 214.37-3.15 214.57-2.9L214.57-2.9Q215.12-2.25 216-1.75 216.87-1.25 217.67-1.25L217.67-1.25Q219.17-1.25 220.27-1.7 221.37-2.15 222.37-2.9L222.37-2.9Q222.62-3.05 222.95-3.2 223.27-3.35 222.87-2.75ZM222.17-17.35L222.17-17.35Q221.97-17.75 220.72-16.7L220.72-16.7Q219.57-15.8 218.9-14.63 218.22-13.45 217.72-12.05L217.72-12.05Q218.67-12.5 219.47-13.08 220.27-13.65 220.97-14.2L220.97-14.2Q221.72-14.85 222.07-15.9 222.42-16.95 222.17-17.35ZM237.17-26.05L237.17-26.05Q237.47-27.15 237.57-28.73 237.67-30.3 237.57-31.88 237.47-33.45 237.09-34.85 236.72-36.25 235.97-37L235.97-37Q235.67-37.3 235.49-37.2 235.32-37.1 235.57-36.7L235.57-36.7Q236.07-35.8 236.04-33.93 236.02-32.05 235.72-29.85 235.42-27.65 234.92-25.45 234.42-23.25 233.92-21.6L233.92-21.6Q233.67-20.9 233.42-19.85 233.17-18.8 232.89-17.73 232.62-16.65 232.42-15.63 232.22-14.6 232.12-13.9L232.12-13.9Q232.12-13.75 232.07-13.33 232.02-12.9 232.17-12.8L232.17-12.8Q232.27-12.8 232.47-13.23 232.67-13.65 232.72-13.75L232.72-13.75Q233.92-16.55 235.17-19.73 236.42-22.9 237.17-26.05ZM236.02-13.85L236.02-13.85Q236.27-14.75 236.72-16.2 237.17-17.65 237.62-19.38 238.07-21.1 238.49-22.98 238.92-24.85 239.14-26.63 239.37-28.4 239.29-29.9 239.22-31.4 238.77-32.35L238.77-32.35Q238.72-32.5 238.57-32.65 238.42-32.8 238.42-32.4L238.42-32.4Q238.52-29.2 237.77-26 237.02-22.8 236.17-20.2L236.17-20.2Q235.52-18.15 234.84-16.1 234.17-14.05 233.69-12.03 233.22-10 233.09-8.05 232.97-6.1 233.47-4.3L233.47-4.3Q233.67-3.65 233.82-3.65L233.82-3.65Q233.97-3.7 233.97-4.3L233.97-4.3Q233.97-5.2 234.14-6.33 234.32-7.45 234.62-8.7 234.92-9.95 235.27-11.28 235.62-12.6 236.02-13.85ZM235.07-0.15L235.07-0.15Q233.32-0.35 231.94-1.9 230.57-3.45 230.12-5.7L230.12-5.7Q229.67-7.85 229.89-10.08 230.12-12.3 230.67-14.25L230.67-14.25Q231.47-17.25 232.57-20.43 233.67-23.6 234.44-26.7 235.22-29.8 235.32-32.68 235.42-35.55 234.32-37.95L234.32-37.95Q234.22-38 234.17-38.18 234.12-38.35 234.02-38.3L234.02-38.3Q233.87-38.3 233.97-37.95L233.97-37.95Q234.37-35.65 234.02-32.98 233.67-30.3 232.89-27.43 232.12-24.55 231.14-21.5 230.17-18.45 229.32-15.4L229.32-15.4Q228.67-13.15 228.44-10.63 228.22-8.1 228.77-5.55L228.77-5.55Q229.07-4.25 229.69-3.2 230.32-2.15 231.17-1.43 232.02-0.7 233.02-0.3 234.02 0.1 235.07 0.05L235.07 0.05 235.22 0.05Q235.27 0.05 235.37 0L235.37 0Q235.37-0.15 235.07-0.15ZM233.57-2.65L233.57-2.65Q232.67-3.7 232.12-5.35L232.12-5.35Q232.07-5.5 231.97-5.83 231.87-6.15 231.77-6.48 231.67-6.8 231.57-7.08 231.47-7.35 231.42-7.35L231.42-7.35Q231.22-7.35 231.22-6.7 231.22-6.05 231.37-5.2 231.52-4.35 231.82-3.48 232.12-2.6 232.52-2.1L232.52-2.1Q233.32-1.2 234.14-1 234.97-0.8 235.82-0.8L235.82-0.8Q236.12-0.8 236.29-0.98 236.47-1.15 236.02-1.25L236.02-1.25Q234.57-1.4 233.57-2.65ZM254.32-13.85L254.32-13.85Q254.47-15.2 254.37-16.7 254.27-18.2 253.74-19.48 253.22-20.75 252.14-21.6 251.07-22.45 249.32-22.45L249.32-22.45Q246.97-22.45 245.22-21.18 243.47-19.9 242.22-18.03 240.97-16.15 240.27-14.03 239.57-11.9 239.37-10.15L239.37-10.15Q239.07-7.75 239.29-6 239.52-4.25 240.12-3.13 240.72-2 241.64-1.45 242.57-0.9 243.67-0.9L243.67-0.9Q245.22-0.85 246.94-1.78 248.67-2.7 250.17-4.38 251.67-6.05 252.79-8.47 253.92-10.9 254.32-13.85ZM238.22-10.4L238.22-10.4Q238.42-12.4 239.22-14.8 240.02-17.2 241.44-19.25 242.87-21.3 244.87-22.68 246.87-24.05 249.52-24.05L249.52-24.05Q251.52-24.05 252.82-23.1 254.12-22.15 254.82-20.68 255.52-19.2 255.72-17.48 255.92-15.75 255.72-14.2L255.72-14.2Q255.27-10.6 253.97-7.95 252.67-5.3 250.92-3.53 249.17-1.75 247.22-0.88 245.27 0 243.47 0L243.47 0Q242.12 0 241.04-0.6 239.97-1.2 239.24-2.48 238.52-3.75 238.24-5.73 237.97-7.7 238.22-10.4ZM243.82-3.35L243.82-3.35Q243.57-3.35 243.32-3.53 243.07-3.7 242.92-3.95 242.77-4.2 242.72-4.45 242.67-4.7 242.92-4.8L242.92-4.8Q243.07-4.85 243.32-4.45 243.57-4.05 243.87-4.05L243.87-4.05Q244.37-4.05 245.04-4.7 245.72-5.35 246.34-6.23 246.97-7.1 247.44-7.95 247.92-8.8 248.12-9.2L248.12-9.2Q248.32-9.6 248.52-10.23 248.72-10.85 248.89-11.5 249.07-12.15 249.19-12.78 249.32-13.4 249.37-13.85L249.37-13.85Q249.62-16.1 249.27-17.32 248.92-18.55 248.12-18.55L248.12-18.55Q247.52-18.55 246.87-18.18 246.22-17.8 245.64-17.2 245.07-16.6 244.62-15.88 244.17-15.15 243.97-14.4L243.97-14.4Q243.72-13.55 243.62-13.55L243.62-13.55Q243.47-13.55 243.47-14.4L243.47-14.4Q243.62-15.35 244.12-16.28 244.62-17.2 245.37-17.93 246.12-18.65 247.02-19.13 247.92-19.6 248.87-19.6L248.87-19.6Q249.82-19.6 250.29-18.93 250.77-18.25 250.97-17.28 251.17-16.3 251.14-15.28 251.12-14.25 251.02-13.65L251.02-13.65Q250.82-12.3 250.39-11.03 249.97-9.75 249.37-8.45L249.37-8.45Q249.07-7.85 248.47-6.98 247.87-6.1 247.09-5.3 246.32-4.5 245.44-3.93 244.57-3.35 243.82-3.35ZM245.42-2.4L245.42-2.4Q245.47-2.1 244.94-1.9 244.42-1.7 243.87-1.7L243.87-1.7Q242.32-1.75 241.49-2.7 240.67-3.65 240.34-4.95 240.02-6.25 240.04-7.65 240.07-9.05 240.17-10L240.17-10Q240.37-11.65 240.97-13.7 241.57-15.75 242.67-17.55 243.77-19.35 245.37-20.58 246.97-21.8 249.17-21.8L249.17-21.8Q250.62-21.8 251.49-21.05 252.37-20.3 252.79-19.2 253.22-18.1 253.29-16.82 253.37-15.55 253.22-14.5L253.22-14.5Q253.12-13.35 252.87-12.4 252.62-11.45 252.17-10.3L252.17-10.3Q252.02-9.95 251.77-9.5 251.52-9.05 251.22-9.1L251.22-9.1Q251.07-9.15 251.14-9.5 251.22-9.85 251.34-10.38 251.47-10.9 251.62-11.48 251.77-12.05 251.82-12.55L251.82-12.55Q251.92-13.4 251.94-14.68 251.97-15.95 251.74-17.15 251.52-18.35 250.92-19.2 250.32-20.05 249.12-20.05L249.12-20.05Q247.37-20.05 245.89-18.93 244.42-17.8 243.32-16.18 242.22-14.55 241.54-12.78 240.87-11 240.72-9.65L240.72-9.65Q240.62-8.85 240.67-7.65 240.72-6.45 241.04-5.28 241.37-4.1 242.12-3.25 242.87-2.4 244.17-2.35L244.17-2.35Q244.57-2.3 244.94-2.43 245.32-2.55 245.42-2.4ZM277.26-15.15L277.26-15.15Q277.21-13 276.51-10.78 275.81-8.55 274.56-6.6 273.31-4.65 271.59-3.13 269.86-1.6 267.76-0.8L267.76-0.8Q267.11-0.55 267.01-0.7L267.01-0.7Q267.01-0.85 267.19-0.95 267.36-1.05 267.61-1.3L267.61-1.3Q269.56-2.8 271.06-4.45 272.56-6.1 273.61-8.03 274.66-9.95 275.19-12.2 275.71-14.45 275.71-17.1L275.71-17.1Q275.71-19.45 274.29-20.88 272.86-22.3 270.81-22.4L270.81-22.4Q269.21-22.5 267.54-21.63 265.86-20.75 264.46-18.9L264.46-18.9Q264.41-19.85 264.96-20.75 265.51-21.65 266.44-22.33 267.36-23 268.56-23.4 269.76-23.8 271.01-23.8L271.01-23.8Q272.21-23.8 273.36-23.33 274.51-22.85 275.41-21.8 276.31-20.75 276.81-19.13 277.31-17.5 277.26-15.15ZM263.01-12.35L263.01-12.35Q262.31-9.2 261.54-5.98 260.76-2.75 259.76 0L259.76 0Q259.66 0.1 259.54 0.35 259.41 0.6 259.31 0.5L259.31 0.5Q259.26 0.5 259.16 0.25L259.16 0.25Q259.11 0.15 259.11 0L259.11 0Q259.16-0.65 259.31-1.65 259.46-2.65 259.64-3.7 259.81-4.75 260.01-5.78 260.21-6.8 260.36-7.55L260.36-7.55Q260.41-7.85 260.61-8.93 260.81-10 261.04-11.45 261.26-12.9 261.49-14.58 261.71-16.25 261.86-17.85 262.01-19.45 262.04-20.75 262.06-22.05 261.86-22.75L261.86-22.75Q261.81-22.95 261.81-23.13 261.81-23.3 261.86-23.3L261.86-23.3Q261.96-23.3 262.06-23.15 262.16-23 262.21-22.9L262.21-22.9Q262.76-22 263.04-20.65 263.31-19.3 263.39-17.8 263.46-16.3 263.34-14.85 263.21-13.4 263.01-12.35ZM264.81-9.2L264.81-9.2Q264.51-7.3 264.24-5.78 263.96-4.25 263.66-2.65L263.66-2.65Q264.81-3.85 265.69-4.83 266.56-5.8 267.24-6.8 267.91-7.8 268.49-8.9 269.06-10 269.61-11.45L269.61-11.45Q270.06-12.7 270.26-14.15 270.46-15.6 270.36-16.5L270.36-16.5Q270.36-16.8 270.19-16.95 270.01-17.1 269.56-16.9L269.56-16.9Q269.11-16.65 268.41-16.03 267.71-15.4 266.99-14.43 266.26-13.45 265.66-12.13 265.06-10.8 264.81-9.2ZM265.16-13.85L265.16-13.85Q265.36-14.5 266.01-15.5 266.66-16.5 267.51-17.35 268.36-18.2 269.31-18.68 270.26-19.15 271.11-18.7L271.11-18.7Q271.71-18.4 271.91-17.48 272.11-16.55 272.01-15.4 271.91-14.25 271.59-12.98 271.26-11.7 270.86-10.75L270.86-10.75Q269.71-7.9 267.99-5.65 266.26-3.4 263.36-1.45L263.36-1.45Q263.31-1.2 263.49-1.13 263.66-1.05 263.94-1.1 264.21-1.15 264.54-1.3 264.86-1.45 265.11-1.7L265.11-1.7Q265.66-2.15 266.34-2.75 267.01-3.35 267.66-3.9 268.31-4.45 268.76-4.78 269.21-5.1 269.31-5.05L269.31-5.05Q269.36-5 269.21-4.73 269.06-4.45 268.81-4.1 268.56-3.75 268.31-3.43 268.06-3.1 267.96-3L267.96-3Q267.31-2.3 266.79-1.78 266.26-1.25 265.51-0.75L265.51-0.75Q264.91-0.3 264.34-0.13 263.76 0.05 263.06-0.2L263.06-0.2Q262.51 2.3 261.74 5 260.96 7.7 260.41 9.8L260.41 9.8Q260.26 10.6 260.11 10.5L260.11 10.5Q260.01 10.4 259.99 10.15 259.96 9.9 259.96 9.6L259.96 9.6Q259.96 7.5 260.21 5.55 260.46 3.6 260.86 1.63 261.26-0.35 261.74-2.38 262.21-4.4 262.71-6.6L262.71-6.6Q263.26-9 263.74-11.28 264.21-13.55 264.56-16.35L264.56-16.35Q264.71-17.55 265.31-18.55 265.91-19.55 266.76-20.23 267.61-20.9 268.64-21.25 269.66-21.6 270.66-21.6L270.66-21.6Q272.31-21.55 273.54-20.38 274.76-19.2 274.76-16.6L274.76-16.6Q274.76-14.7 274.19-13.05 273.61-11.4 272.91-10.05L272.91-10.05Q272.81-9.9 272.49-9.5 272.16-9.1 272.06-9.2L272.06-9.2Q272.01-9.25 272.14-9.65 272.26-10.05 272.36-10.3L272.36-10.3Q272.66-11.1 272.91-12.45 273.16-13.8 273.19-15.2 273.21-16.6 272.84-17.8 272.46-19 271.46-19.5L271.46-19.5Q270.26-20.1 269.14-19.68 268.01-19.25 267.14-18.3 266.26-17.35 265.71-16.13 265.16-14.9 265.16-13.85ZM260.76-24.25L260.76-24.25Q261.51-21.6 261.34-18.68 261.16-15.75 260.51-12.68 259.86-9.6 259.01-6.45 258.16-3.3 257.56-0.15L257.56-0.15Q257.26 1.55 257.09 3.53 256.91 5.5 257.01 7.55 257.11 9.6 257.54 11.58 257.96 13.55 258.86 15.25L258.86 15.25Q259.06 15.65 258.94 15.65 258.81 15.65 258.56 15.35L258.56 15.35Q257.36 13.65 256.74 11.58 256.11 9.5 255.89 7.33 255.66 5.15 255.76 2.95 255.86 0.75 256.16-1.25L256.16-1.25Q256.66-4.4 257.44-7.45 258.21-10.5 258.91-13.4 259.61-16.3 260.09-19.03 260.56-21.75 260.41-24.25L260.41-24.25Q260.41-24.6 260.51-24.6L260.51-24.6Q260.56-24.65 260.66-24.5 260.76-24.35 260.76-24.25ZM260.56 15.65L260.56 15.65Q260.41 15.7 260.21 15.5L260.21 15.5 260.01 15.3Q259.46 14.65 259.01 13.95 258.56 13.25 258.26 11.6L258.26 11.6Q258.16 10.95 258.11 10 258.06 9.05 258.06 8.15 258.06 7.25 258.16 6.6 258.26 5.95 258.46 6L258.46 6Q258.66 6 258.81 6.7 258.96 7.4 259.01 8.1L259.01 8.1Q259.11 9.05 259.14 9.83 259.16 10.6 259.31 11.4L259.31 11.4Q259.51 12.4 259.81 13.35 260.11 14.3 260.51 15.15L260.51 15.15Q260.56 15.25 260.59 15.45 260.61 15.65 260.56 15.65ZM292.51-20.4L292.51-20.4Q292.91-19.9 293.14-19.15 293.36-18.4 293.31-17.53 293.26-16.65 292.91-15.7 292.56-14.75 291.81-13.85L291.81-13.85Q290.36-12.15 288.64-11.23 286.91-10.3 285.51-10.3L285.51-10.3Q284.66-10.3 285.51-10.6L285.51-10.6Q285.96-10.75 286.59-11.08 287.21-11.4 287.91-11.88 288.61-12.35 289.34-13 290.06-13.65 290.66-14.5L290.66-14.5Q291.66-15.9 291.84-17.23 292.01-18.55 291.31-19.25L291.31-19.25Q290.71-19.85 289.91-19.93 289.11-20 287.51-19.05L287.51-19.05Q286.06-18.2 284.91-16.95 283.76-15.7 282.76-14.3L282.76-14.3Q282.21-13.6 282.04-13.6 281.86-13.6 282.16-14.5L282.16-14.5Q282.76-16.25 283.84-17.75 284.91-19.25 286.41-20.3L286.41-20.3Q287.51-21.05 288.44-21.35 289.36-21.65 290.14-21.6 290.91-21.55 291.51-21.23 292.11-20.9 292.51-20.4ZM295.21-16.9L295.21-16.9Q295.01-15.7 294.59-14.88 294.16-14.05 293.64-13.48 293.11-12.9 292.59-12.55 292.06-12.2 291.66-11.9L291.66-11.9Q291.46-11.75 291.36-11.85 291.26-11.95 291.51-12.2L291.51-12.2Q292.41-12.95 293.34-14.23 294.26-15.5 294.31-17.05L294.31-17.05Q294.31-19.7 293.01-21.1L293.01-21.1Q291.71-22.5 289.76-22.33 287.81-22.15 285.71-20.8L285.71-20.8Q284.36-19.95 283.34-18.82 282.31-17.7 281.56-16.43 280.81-15.15 280.34-13.8 279.86-12.45 279.66-11.1L279.66-11.1Q279.46-9.8 279.29-8.3 279.11-6.8 279.29-5.35 279.46-3.9 280.21-2.58 280.96-1.25 282.56-0.3L282.56-0.3Q282.81-0.15 283.09-0.1 283.36-0.05 283.36 0L283.36 0Q283.36 0.1 283.11 0.13 282.86 0.15 282.56 0.05L282.56 0.05Q281.31-0.2 280.44-0.98 279.56-1.75 279.01-2.75 278.46-3.75 278.16-4.85 277.86-5.95 277.81-6.85L277.81-6.85Q277.51-10.8 278.91-14.65L278.91-14.65Q279.21-15.45 279.69-16.45 280.16-17.45 280.86-18.48 281.56-19.5 282.51-20.48 283.46-21.45 284.66-22.2L284.66-22.2Q285.81-22.9 287.06-23.25 288.31-23.6 289.56-23.58 290.81-23.55 291.91-23.13 293.01-22.7 293.86-21.85L293.86-21.85Q294.61-21.05 295.04-19.8 295.46-18.55 295.21-16.9ZM290.66-18.7L290.66-18.7Q291.26-18 290.81-16.53 290.36-15.05 288.71-13.55L288.71-13.55Q287.81-12.7 286.96-12.18 286.11-11.65 284.81-11.25L284.81-11.25Q284.26-9.35 284.11-7.5 283.96-5.65 284.21-4.5L284.21-4.5Q284.26-4.05 284.54-3.63 284.81-3.2 285.34-2.98 285.86-2.75 286.71-2.8 287.56-2.85 288.81-3.35L288.81-3.35Q289.16-3.5 289.24-3.43 289.31-3.35 288.91-3.1L288.91-3.1Q288.01-2.4 287.01-2.13 286.01-1.85 285.14-1.95 284.26-2.05 283.64-2.55 283.01-3.05 282.81-3.9L282.81-3.9Q282.41-5.65 282.46-7.55 282.51-9.45 283.04-11.3 283.56-13.15 284.54-14.78 285.51-16.4 286.96-17.55L286.96-17.55Q289.66-19.7 290.66-18.7ZM290.16-2.75L290.16-2.75Q289.81-2.25 289.29-1.78 288.76-1.3 288.09-0.93 287.41-0.55 286.69-0.3 285.96-0.05 285.21-0.05L285.21-0.05Q283.91-0.05 282.79-0.63 281.66-1.2 281.06-2.95L281.06-2.95Q280.96-3.15 280.96-3.33 280.96-3.5 281.06-3.5L281.06-3.5Q281.26-3.6 281.46-3.38 281.66-3.15 281.86-2.9L281.86-2.9Q282.41-2.25 283.29-1.75 284.16-1.25 284.96-1.25L284.96-1.25Q286.46-1.25 287.56-1.7 288.66-2.15 289.66-2.9L289.66-2.9Q289.91-3.05 290.24-3.2 290.56-3.35 290.16-2.75ZM289.46-17.35L289.46-17.35Q289.26-17.75 288.01-16.7L288.01-16.7Q286.86-15.8 286.19-14.63 285.51-13.45 285.01-12.05L285.01-12.05Q285.96-12.5 286.76-13.08 287.56-13.65 288.26-14.2L288.26-14.2Q289.01-14.85 289.36-15.9 289.71-16.95 289.46-17.35ZM301.66-16.65L301.66-16.65Q301.26-14.95 300.53-13.08 299.81-11.2 298.91-9.6L298.91-9.6Q298.91-9.5 298.78-9.28 298.66-9.05 298.46-9.05L298.46-9.05Q298.36-9.05 298.33-9.35 298.31-9.65 298.36-9.75L298.36-9.75Q298.36-10.55 298.56-11.88 298.76-13.2 299.06-14.05L299.06-14.05Q299.16-14.35 299.38-15.5 299.61-16.65 299.78-18.07 299.96-19.5 299.98-20.83 300.01-22.15 299.66-22.8L299.66-22.8 299.66-23Q299.86-23.15 300.11-22.9L300.11-22.9Q300.76-22.35 301.13-21.55 301.51-20.75 301.68-19.88 301.86-19 301.83-18.15 301.81-17.3 301.66-16.65ZM303.61-16.85L303.61-16.85Q304.16-17.55 304.66-17.85 305.16-18.15 305.66-18.35L305.66-18.35Q305.71-18.35 305.91-18.4 306.11-18.45 306.21-18.3L306.21-18.3Q306.31-18.15 306.16-17.95 306.01-17.75 305.91-17.65L305.91-17.65Q305.56-17.3 305.13-16.88 304.71-16.45 304.36-16.05L304.36-16.05Q303.86-15.5 303.56-14.78 303.26-14.05 303.11-13.3L303.11-13.3Q303.96-14.2 304.73-15 305.51-15.8 306.41-16.5L306.41-16.5Q307.56-17.35 308.41-18.7 309.26-20.05 309.61-22.65L309.61-22.65Q309.71-22.9 309.86-22.95 310.01-23 310.01-22.6L310.01-22.6Q310.16-19.7 309.41-18 308.66-16.3 307.16-15.15L307.16-15.15Q306.36-14.55 305.56-13.85 304.76-13.15 304.03-12.3 303.31-11.45 302.71-10.3 302.11-9.15 301.66-7.65L301.66-7.65Q301.31-6.5 300.96-5.48 300.61-4.45 300.21-3.5L300.21-3.5Q300.11-3.15 299.91-3.15L299.91-3.15Q299.76-3.2 299.76-3.65L299.76-3.65Q299.51-6.05 300.08-8.43 300.66-10.8 301.46-13.35L301.46-13.35Q301.81-14.6 302.28-15.85 302.76-17.1 302.71-18.7L302.71-18.7Q302.71-19.25 303.16-19.85 303.61-20.45 304.26-20.98 304.91-21.5 305.61-21.88 306.31-22.25 306.81-22.4L306.81-22.4Q307.26-22.55 307.26-22.35 307.26-22.15 306.96-21.85L306.96-21.85Q305.91-20.9 304.83-19.6 303.76-18.3 303.61-16.85ZM299.26-0.05L299.26-0.05Q299.21 0 299.18-0.03 299.16-0.05 298.91-0.2L298.91-0.2Q297.41-1.3 296.56-2.6 295.71-3.9 295.33-5.28 294.96-6.65 295.01-8.03 295.06-9.4 295.36-10.7L295.36-10.7Q295.76-12.45 296.33-14.18 296.91-15.9 297.41-17.53 297.91-19.15 298.16-20.73 298.41-22.3 298.16-23.75L298.16-23.75Q298.16-23.85 298.31-23.9L298.31-23.9Q298.36-23.9 298.41-23.83 298.46-23.75 298.51-23.7L298.51-23.7Q299.46-22.1 299.46-20.43 299.46-18.75 299.01-17.03 298.56-15.3 297.88-13.53 297.21-11.75 296.81-9.95L296.81-9.95Q296.31-7.65 296.73-5.05 297.16-2.45 299.06-0.4L299.06-0.4Q299.16-0.25 299.26-0.2 299.36-0.15 299.26-0.05ZM300.76 0L300.76 0Q300.66 0 300.56-0.05L300.56-0.05 300.36-0.15Q299.66-0.6 299.11-1.13 298.56-1.65 298.16-2.65L298.16-2.65Q298.01-3 297.91-3.58 297.81-4.15 297.78-4.65 297.76-5.15 297.83-5.5 297.91-5.85 298.11-5.8L298.11-5.8Q298.26-5.8 298.43-5.4 298.61-5 298.71-4.6L298.71-4.6Q298.81-4.05 298.93-3.55 299.06-3.05 299.26-2.65L299.26-2.65Q299.81-1.4 300.71-0.25L300.71-0.25Q300.81 0 300.76 0ZM308.91-22.45L308.91-22.45Q308.91-21.4 308.31-20.6 307.71-19.8 306.86-19.25L306.86-19.25Q306.71-19.15 306.66-19.28 306.61-19.4 306.61-19.45L306.61-19.45Q306.61-19.75 306.86-20.18 307.11-20.6 307.43-21.08 307.76-21.55 308.06-22.05 308.36-22.55 308.46-22.95L308.46-22.95Q308.61-23.2 308.76-22.95 308.91-22.7 308.91-22.45Z" opacity="1" transform="matrix(1,0,0,1,0,0)" fill="#ffeffd" class="slogan-text-1" data-fill-palette-color="secondary" id="text-1"></path></svg></g></svg></g></svg></g></svg></g><g><svg viewBox="0 0 122.63829088799834 118.07341430175501" height="118.07341430175501" width="122.63829088799834"><g><svg xmlns="http://www.w3.org/2000/svg" xmlns:xlink="http://www.w3.org/1999/xlink" version="1.1" x="0" y="0" viewBox="13.849000000000002 13.34383681875781 52.303 50.356163181242195" enable-background="new 0 0 80 80" xml:space="preserve" height="118.07341430175501" width="122.63829088799834" class="icon-icon-0" data-fill-palette-color="accent" id="icon-0"><g fill="#001f3f" data-fill-palette-color="accent"><path fill-rule="evenodd" clip-rule="evenodd" d="M54.331 63.7H42.019c-5.881 0-9.445-2.954-10.787-4.066-0.001-0.001-0.001-0.002-0.003-0.003-0.154-0.128-0.348-0.197-0.55-0.197H28.17c-0.645 0-1.168-0.523-1.168-1.168V33.918c0-0.646 0.523-1.168 1.168-1.168h2.174c0.76-0.044 4.833-2.078 7.266-6.22 0.777-1.322 1.167-2.903 1.437-5.83 0.05-1.09-0.003-2.043-0.05-2.885-0.09-1.622-0.161-2.903 0.699-3.781 0.009-0.009 0.018-0.018 0.026-0.026 0.23-0.22 0.769-0.735 3.487-0.656 1.139 0.033 2.642 0.182 3.447 0.499 3.106 1.226 4.001 3.469 4.205 5.135 0.737 5.995-2.043 11.636-2.63 12.746-0.098 0.235-0.075 0.475 0.061 0.687 0.135 0.21 0.367 0.331 0.636 0.331h10.447c4.434 0 6.777 2.226 6.777 6.438 0 4.321-2.724 12.414-4.352 17.249-0.431 1.278-0.771 2.289-0.902 2.775-0.007 0.021-0.013 0.041-0.019 0.062C59.956 62.003 57.445 63.7 54.331 63.7L54.331 63.7z" fill="#001f3f" data-fill-palette-color="accent"></path><path fill-rule="evenodd" clip-rule="evenodd" d="M22.332 59.443h-7.316c-0.646 0-1.167-0.523-1.167-1.168V33.918c0-0.646 0.522-1.168 1.167-1.168h7.316c0.645 0 1.167 0.522 1.167 1.168v24.357C23.5 58.92 22.978 59.443 22.332 59.443L22.332 59.443z" fill="#001f3f" data-fill-palette-color="accent"></path></g></svg></g></svg></g></svg></g><defs></defs></svg><rect width="395.52" height="86.42313212574835" fill="none" stroke="none" visibility="hidden"></rect></g></svg></g></svg>